<?xml version="1.0" standalone="no"?>
<!DOCTYPE svg PUBLIC "-//W3C//DTD SVG 20010904//EN"
 "http://www.w3.org/TR/2001/REC-SVG-20010904/DTD/svg10.dtd">
<svg version="1.0" xmlns="http://www.w3.org/2000/svg"
 width="500.000000pt" height="500.000000pt" viewBox="0 0 500.000000 500.000000"
 preserveAspectRatio="xMidYMid meet">

<g transform="translate(0.000000,500.000000) scale(0.100000,-0.100000)"
fill="#000000" stroke="none">
<path d="M3159 4326 c-2 -2 -22 -7 -44 -10 -23 -4 -52 -9 -65 -11 -14 -3 -38
-7 -55 -10 -55 -9 -160 -38 -172 -48 -7 -5 -17 -6 -22 -3 -5 4 -12 2 -15 -3
-4 -5 -39 -19 -79 -32 -39 -12 -102 -37 -139 -56 -36 -18 -70 -33 -75 -33 -4
0 -25 -9 -46 -20 l-37 -20 -63 20 c-34 12 -71 25 -82 30 -35 16 -167 52 -280
76 -175 38 -622 63 -770 43 -33 -4 -103 -13 -155 -19 -145 -17 -260 -41 -280
-59 -20 -17 -63 -179 -80 -296 -5 -38 -14 -92 -19 -119 -10 -54 -7 -395 4
-436 3 -14 8 -63 11 -109 2 -46 8 -89 14 -95 5 -7 11 -27 13 -46 5 -40 65
-269 75 -285 4 -5 7 -12 8 -15 0 -3 5 -16 11 -30 53 -125 73 -177 73 -186 0
-6 7 -17 15 -24 21 -18 19 -49 -9 -104 -13 -26 -39 -93 -56 -149 -18 -56 -36
-107 -41 -113 -5 -6 -6 -14 -2 -17 3 -4 1 -12 -4 -19 -21 -27 -78 -318 -68
-347 9 -27 172 -132 330 -213 88 -45 271 -122 349 -148 36 -11 42 -20 87 -114
84 -176 132 -256 259 -436 30 -42 50 -59 65 -54 5 2 26 6 45 9 19 3 53 10 75
16 22 6 49 12 60 14 11 1 33 7 48 14 16 6 36 11 44 11 22 0 150 38 188 56 17
8 62 25 100 38 l70 23 90 -39 c234 -103 525 -181 726 -193 177 -11 374 -13
434 -5 33 5 83 11 110 14 46 5 109 15 195 31 50 10 133 36 147 47 25 20 53
288 53 519 0 206 -18 436 -45 569 -2 13 -7 40 -10 60 -3 19 -12 62 -21 95 -8
33 -16 67 -18 75 -1 9 -5 21 -10 28 -4 6 -4 12 0 12 3 0 2 6 -4 13 -5 6 -22
53 -37 102 -15 50 -40 118 -56 152 -30 64 -29 77 8 163 3 8 7 17 8 20 1 3 6
16 12 30 6 14 21 61 33 105 12 44 25 84 28 89 3 5 6 25 8 44 2 18 8 39 13 46
9 10 30 125 45 247 7 53 9 51 -111 132 -97 66 -259 157 -398 224 l-99 48 -27
75 c-49 140 -155 344 -266 511 -61 94 -85 123 -94 115z m-877 -931 c180 -38
266 -122 276 -270 6 -96 -21 -166 -95 -245 -120 -130 -303 -210 -657 -290 -85
-19 -136 -36 -149 -49 -24 -23 -28 -22 133 -50 221 -39 366 -91 439 -157 52
-46 71 -82 71 -132 0 -126 -194 -320 -410 -408 -211 -86 -463 -117 -602 -74
-130 40 -193 131 -186 270 3 74 5 79 75 195 40 66 91 148 113 182 l40 62 -48
7 c-91 13 -142 45 -142 90 0 56 72 89 260 118 94 15 95 16 139 63 156 172 223
233 294 267 83 41 157 57 157 34 0 -18 -46 -90 -131 -205 l-69 -92 33 5 c325
58 548 180 547 301 -1 86 -139 135 -316 113 -180 -22 -590 -148 -565 -173 16
-16 13 -42 -7 -60 -10 -9 -56 -25 -102 -36 -47 -11 -133 -38 -193 -60 -59 -23
-116 -41 -126 -41 -29 0 -51 28 -51 65 0 80 161 331 248 386 93 59 473 162
707 192 76 10 256 5 317 -8z m1643 -18 c32 -9 65 -23 72 -33 18 -24 16 -119
-2 -182 -21 -69 -62 -107 -172 -159 -50 -24 -117 -63 -149 -88 -69 -54 -91
-62 -112 -41 -22 22 -8 49 70 131 l63 68 -92 -6 c-159 -11 -353 -61 -473 -122
-126 -63 -221 -151 -206 -190 12 -31 128 -73 465 -166 159 -44 228 -73 289
-122 95 -75 132 -166 113 -281 -40 -238 -264 -392 -681 -468 -162 -29 -510
-32 -585 -5 -58 22 -101 58 -110 94 -8 35 19 110 66 183 34 52 48 65 102 90
34 16 79 32 100 36 32 5 37 4 37 -12 0 -10 -17 -36 -37 -57 l-38 -40 180 7
c259 8 398 32 565 97 88 34 195 106 212 144 10 22 8 29 -13 51 -55 60 -232
120 -524 178 -233 47 -266 58 -309 106 -45 50 -50 72 -43 184 7 111 39 238 72
288 90 136 417 285 730 332 64 9 351 -3 410 -17z"/>
<path d="M1449 2288 c-120 -150 -131 -188 -76 -243 94 -94 313 -83 518 26 75
40 157 112 165 145 8 32 -17 69 -65 93 -75 39 -288 81 -407 81 l-54 0 -81
-102z"/>
</g>
</svg>
