<?xml version="1.0" standalone="no"?>
<!DOCTYPE svg PUBLIC "-//W3C//DTD SVG 1.1//EN" "http://www.w3.org/Graphics/SVG/1.1/DTD/svg11.dtd" >
<svg xmlns="http://www.w3.org/2000/svg">
<metadata>Generated by IcoMoon</metadata>
<defs>
<font id="icomoon" horiz-adv-x="1024">
<font-face units-per-em="1024" ascent="960" descent="-64" />
<missing-glyph horiz-adv-x="1024" />
<glyph unicode="&#x20;" horiz-adv-x="512" d="" />
<glyph unicode="&#xe900;" glyph-name="bs-zoom-see" d="M618.82 174.688c-78.089 0-151.758 30.204-207.010 85.456s-85.456 128.921-85.456 207.010c0 78.089 30.204 151.758 85.456 207.010s128.921 85.456 207.010 85.456c78.089 0 151.758-30.204 207.010-85.456 114.187-114.187 114.187-299.833 0-414.020-55.252-55.252-128.921-85.456-207.010-85.456v0zM618.82 674.164c-55.252 0-107.557-21.364-146.601-60.409-81.036-81.036-81.036-212.167 0-293.203 39.045-39.045 91.35-60.409 146.601-60.409s107.557 21.364 146.601 60.409c39.045 39.045 60.409 91.35 60.409 146.601s-21.364 107.557-60.409 146.601c-39.045 39.045-91.35 60.409-146.601 60.409v0zM122.291 50.924l219.534 219.534c11.050-15.471 23.574-30.204 36.835-43.465s27.994-25.784 43.465-36.835l-219.534-219.534-80.299 80.299z" />
<glyph unicode="&#xe901;" glyph-name="bs-zoom" d="M195.68 378.496l-11.52 0.512h-103.456l137.984 137.984-0.512 11.52c-0.48 18.464-15.488 33.504-34.016 34.016l-11.488 0.48h-172.512l0.672-11.488c1.312-18.688 14.976-32.864 33.792-34.016l11.52-0.512h103.68l-138.208-137.984 0.512-11.52c0.672-18.464 15.488-33.312 34.016-34.016l11.52-0.48h172.512l-0.512 11.488c-1.504 18.848-15.008 32.672-34.016 33.824zM333.824 562.976h-0.16c-153.312-0.16-153.184-229.984 0-229.984 153.344 0 153.344 229.792 0.16 229.984zM382.496 399.136c-26.656-28.16-71.328-28.64-98.848-1.152-27.488 27.36-26.784 72.032 1.184 98.848 65.152 61.824 159.488-32.512 97.664-97.696zM931.68 562.976c-26.336 0-51.328-11.296-68.832-31.136-17.536 19.84-42.656 31.136-69.024 31.136-18.464 0-36.32-5.504-51.616-15.84-8.832 10.016-29.024 15.84-40.352 15.84v-229.984l11.52 0.48c19.168 1.376 33.152 14.848 33.824 34.016l0.64 11.52v80.512l0.512 11.488c0.512 8.672 1.664 16.352 5.664 23.008 12.672 22.016 40.832 29.536 62.848 16.864 7.008-4 12.64-9.856 16.64-16.672s5.152-14.496 5.664-23.168l0.672-11.488v-80.512l0.48-11.52c1.184-18.656 15.008-32.64 34.016-34.016l11.52-0.48v126.496l0.48 11.488c0.352 8.48 1.664 16.512 5.664 23.168 12.832 22.016 40.992 29.472 62.848 16.672 7.008-4 12.832-9.856 16.8-16.864 3.84-6.656 5.024-14.496 5.504-23.008l0.672-11.488v-80.512l0.512-11.52c1.152-18.816 14.976-32.8 34.016-34.016l11.488-0.48v137.984c0 50.816-41.344 92-92.16 92zM493.984 529.312c-46.976-44.512-47.84-119.008-2.176-164.64 45.696-45.824 120.192-44.832 164.704 2.016 103.168 108.32-54.176 265.632-162.528 162.656zM624 399.136c-26.848-27.488-71.008-27.808-98.176-0.64-27.296 27.296-27.008 71.52 0.672 98.336 64.992 63.328 160.992-32.512 97.504-97.696z" />
<glyph unicode="&#xe902;" glyph-name="bs-youtube" d="M980.48 732.16c-27.776 49.408-57.92 58.496-119.296 61.952-61.312 4.16-215.488 5.888-349.056 5.888-133.824 0-288.064-1.728-349.312-5.824-61.248-3.52-91.456-12.544-119.488-62.016-28.608-49.344-43.328-134.336-43.328-283.968 0-0.128 0-0.192 0-0.192 0-0.128 0-0.192 0-0.192v-0.128c0-148.992 14.72-234.624 43.328-283.456 28.032-49.408 58.176-58.368 119.424-62.528 61.312-3.584 215.552-5.696 349.376-5.696 133.568 0 287.744 2.112 349.12 5.632 61.376 4.16 91.52 13.12 119.296 62.528 28.864 48.832 43.456 134.464 43.456 283.456 0 0 0 0.192 0 0.32 0 0 0 0.128 0 0.192 0 149.696-14.592 234.688-43.52 284.032zM384 256v384l320-192-320-192z" />
<glyph unicode="&#xe903;" glyph-name="bs-yarn-2" d="M512 960c-282.656 0-512-229.344-512-512s229.344-512 512-512c282.656 0 512 229.344 512 512s-229.344 512-512 512zM544.832 784.832c7.68 0 15.488-2.176 22.336-6.656 5.344-3.488 12.16-7.84 32.16-49.152 13.344 3.68 20 1.664 23.488 0.672 8.832-2.336 15.68-8 19.84-16 20.32-39.008 23.168-108.832 14.176-153.824-10.176-52.512-32.16-86.496-48.16-109.824 13.824-14.016 33.152-38.336 47.68-77.824 11.84-32.992 13.152-63.168 11.68-86.016 8.832 4.16 17.344 8.832 25.664 14.016 25.344 15.68 63.328 39.168 108.832 39.84 30.496 0.32 54.176-19.008 57.824-47.168 3.488-26.848-14.016-52-40.32-58.016-27.68-6.848-40.512-12-77.664-36-52.672-34.016-108.32-52.992-128.512-59.328-8.832-7.168-19.168-12.16-30.176-14.656-31.328-7.68-139.328-13.504-147.84-13.504h-2.016c-33.344 0-51.84 10.336-61.824 20.992-28-14.016-64.32-8.16-90.496 5.664-18.336 9.152-28.32 29.152-24.832 49.344-2.336 2.496-4.512 5.344-6.496 8.32-6.848 10.656-22.496 39.84-19.328 83.008 2.336 30.848 23.68 58.336 37.504 72.832-0.992 32.992 4.992 65.824 17.504 96.32 12.992 31.008 37.664 57.504 56.32 74.176-13.664 22.848-27.488 58.336-14.176 94.176 9.664 25.824 17.664 40 35.008 46.176h-0.16c8.512 3.168 16.672 6.496 20.672 11.008 25.504 27.84 60.672 44.672 98.176 47.168 1.504 3.84 3.328 7.84 5.344 12 13.152 28 27.168 43.84 43.68 49.824 4.512 1.664 9.152 2.496 14.016 2.496zM544.992 755.008c-21.664-0.672-42.656-64.832-42.656-64.832s-54.176 8.672-96.672-37.152c-8.512-9.344-20-14.176-31.84-18.848-3.328-1.152-7.488-0.832-17.824-28.672-15.84-42.176 26.656-89.344 26.656-89.344s-50.656-35.68-69.344-80.16c-20.832-48.832-14.496-96.512-14.496-96.512s-36-31.168-38.336-63.488c-2.176-28.16 6.016-51.168 14.656-64.672 9.664-14.496 21.824-7.488 21.824-7.488s-24-27.84-1.664-39.68c20.32-10.656 54.656-16.832 72.992 1.664 13.152 13.152 15.84 42.656 20.672 54.656 1.152 2.848 5.152-4.672 8.992-8.512 4.16-4 11.168-8.32 11.168-8.32s-32.16-13.824-19.008-45.504c4.32-10.496 20-17.152 45.504-16.992 9.504 0.32 113.664 6.016 141.344 12.672 16 3.84 21.664 12.16 21.664 12.16s66.848 18.336 127.84 57.824c39.168 25.504 55.168 32.512 86.848 40 26.176 6.176 24.32 46.848-10.336 46.176-35.84-0.32-67.168-18.848-93.664-35.168-49.664-30.656-74.336-28.672-74.336-28.672l-0.832 1.344c-3.328 5.504 15.84 55.168-5.664 114.336-23.328 64.512-60.32 80.16-57.344 85.152 12.672 21.344 44.32 55.328 56.992 118.656 7.488 38.336 5.504 101.344-11.488 134.336-3.168 6.176-31.328-10.336-31.328-10.336s-26.176 58.496-33.504 63.328c-2.016 1.344-4.32 2.016-6.848 2.016z" />
<glyph unicode="&#xe904;" glyph-name="bs-yarn" d="M438.751 851.844c0 0 42.873 130.268 82.448 104.874 12.202-7.915 56.065-105.533 56.065-105.533s46.83 27.373 52.107 17.149c61.071-186.144 4.821-317.393-75.852-422.133 107.298-100.197 125.965-202.863 105.203-332.76 100.94-0.216 152.9 98.163 281.642 104.214 57.714 0.989 60.682-66.618 17.149-77.171-89.499-12.634-177.76-112.474-358.154-163.247-23.271-35.416-162.296-31.456-271.748-41.224-115.805-1.231-85.888 88.959-44.192 104.214-27.193 14.815-28.3 29.591-33.639 28.032-28.962-154.253-107.961-107.254-156.321-93.991-37.266 19.788 2.638 66.288 2.638 66.288-36.278-15.552-64.913 53.007-60.682 120.374 3.957 53.756 63.98 105.863 63.98 105.863-3.576 134.21 35.628 221.516 139.832 294.834-36.408 42.875-78.408 111.875-23.014 192.254 72.105 20.12 86.105 105.62 222.538 97.963z" />
<glyph unicode="&#xe905;" glyph-name="bs-work" d="M448.741 563.606l-424.428-424.425c-15.787-15.785-23.685-34.694-23.685-56.715 0-22.441 7.896-41.131 23.685-56.102l66.061-67.311c16.211-15.375 35.115-23.054 56.715-23.054 22.024 0 40.721 7.68 56.095 23.054l425.041 425.054c-40.706 16.211-76.744 39.996-108.126 71.363-31.365 31.373-55.148 67.418-71.359 108.137zM215.030 94.306c-7.904-7.889-17.252-11.843-28.051-11.843-10.803 0-20.151 3.953-28.044 11.843-7.896 7.896-11.845 17.241-11.845 28.044 0 10.793 3.949 20.153 11.845 28.060 7.894 7.88 17.234 11.834 28.044 11.834 10.806 0 20.155-3.953 28.051-11.834 7.891-7.904 11.84-17.265 11.84-28.060 0-10.801-3.949-20.149-11.84-28.044zM1018.084 670.809c-3.532 4.161-8.417 6.235-14.641 6.235-3.735 0-18.378-7.381-43.941-22.131-25.549-14.746-53.707-31.57-84.448-50.479-30.756-18.911-47.167-28.985-49.239-30.234l-120.294 66.689v139.609l182.606 105.336c6.647 4.569 9.972 10.386 9.972 17.451 0 7.060-3.325 12.875-9.972 17.446-18.289 12.469-40.625 22.131-66.995 28.985-26.385 6.854-51.633 10.284-75.727 10.284-76.864 0-142.617-27.326-197.247-81.961-54.65-54.631-81.957-120.388-81.957-197.252 0-76.866 27.322-142.621 81.957-197.256 54.631-54.631 120.383-81.957 197.247-81.957 58.591 0 112.296 17.361 161.115 52.046 48.811 34.694 82.998 79.879 102.525 135.555 9.548 27.835 14.327 49.861 14.327 66.061 0.015 6.217-1.764 11.412-5.289 15.573z" />
<glyph unicode="&#xe906;" glyph-name="bs-word" d="M977.753 855.107h-373.142v93.053h-69.557l-535.054-93.286v-813.98l531.913-93.053h72.698v92.705l349.181-0.001c19.774 0.93 41.757-0.582 58.74 11.515 13.609 20.821 10.12 46.875 11.283 70.371v687.544c2.443 26.52-19.541 47.806-46.061 45.131zM388.031 289.926c-19.425-10.119-48.504 0.465-71.534-1.163-15.47 77.001-33.499 153.537-47.341 230.887-13.609-75.14-31.289-149.582-46.875-224.257-22.333 1.163-44.782 2.559-67.231 4.071-19.309 102.358-41.99 204.018-60.019 306.609 19.89 0.931 39.896 1.745 59.786 2.443 11.98-74.093 25.59-147.838 36.058-222.047 16.401 76.071 33.15 152.141 49.434 228.212 22.1 1.28 44.2 2.21 66.3 3.373 15.47-78.513 31.289-156.91 48.039-235.075 13.144 80.723 27.683 161.214 41.757 241.821 23.263 0.814 46.526 2.094 69.673 3.489-26.287-112.71-49.318-226.351-78.048-338.364zM968.454 95.788h-363.843v73.053h302.422v46.526h-302.422v58.158h302.422v46.526h-302.422v58.158h302.422v46.526h-302.422v58.158h302.422v46.527h-302.422v58.158h302.422v46.526h-302.422v58.158h302.422v46.527h-302.422v61.421h363.843v-704.423z" />
<glyph unicode="&#xe907;" glyph-name="bs-windows" d="M0.341 482.133l-0.341 332.868 409.6 55.603v-388.471h-409.259zM477.867 880.538l545.997 79.462v-477.867h-545.997v398.404zM1024 413.867l-0.137-477.867-545.997 76.8v401.067h546.133zM409.6 21.47l-409.259 56.115v336.282h409.259v-392.397z" />
<glyph unicode="&#xe908;" glyph-name="bs-wiki" d="M1023.188 804.144c0 0-159.019 0-211.327 0l-15.53-2.559v-20.437c0-2.176 7.551-4.182 9.558-5.675 2.004-1.493 7.039-2.433 9.215-2.433l19.115-1.024c21.888-1.024 28.202-5.887 36.907-13.866 8.106-8.148 9.77-22.143 3.073-41.685l-187.051-488.532-7.039 2.090-118.912 267.521c1.75 4.011 2.773 6.144 2.773 6.144l97.152 200.022c11.093 20.991 22.614 39.935 27.947 48.812 9.984 16.085 14.976 19.030 42.88 20.522 5.804 0 7.894 2.645 7.894 8.148v20.31l-1.707 2.133c0 0-116.053 0.469-169.131 0l0.086-2.090v-20.437c0-2.176-1.195-4.182 0.726-5.675 1.45-1.792 2.347-2.433 4.437-2.433l8.022-1.024c21.846-1.109 31.615-7.339 34.646-11.393 5.035-6.699 7.339-14.209-4.992-44.16l-74.966-164.351-67.796 152.406c-22.143 48.512-27.647 63.53 5.887 66.432l9.003 2.090c6.442 0 5.418 2.559 5.418 7.425v21.12l-0.852 1.878c0 0-123.99 0-180.564 0l-0.895-1.962v-21.377c0-4.609 4.906-6.016 13.738-7.425 31.189-4.48 30.677-8.065 61.652-75.564 4.523-10.112 18.389-40.618 18.389-40.618l70.529-152.448c0 0 7.979-19.541 20.565-49.878l-102.57-224.982-5.93 1.878c0 0-159.359 368.682-205.355 492.16-4.735 12.8-7.039 22.186-7.039 27.904 0 12.502 10.453 19.413 30.934 20.267l31.403 1.066c6.442 0 16.982 2.645 16.982 8.491v20.139l-9.429 2.047c0 0-195.071 0.298-234.496 0l-6.536-2.052v-21.205c0-3.883 5.035-6.315 13.995-7.425 24.362-1.407 40.533-5.547 48.086-12.545 7.808-7.382 15.914-25.386 26.538-53.418 57.855-152.96 180.95-425.428 240.895-580.564 17.366-42.113 38.911-49.024 65.408 1.195 27.052 54.996 81.536 177.791 121.471 267.99 37.333-90.111 87.766-212.139 112.468-267.221 19.201-44.117 41.344-48.81 64.213-1.664 58.965 144 231.040 577.664 231.040 577.664 7.765 21.163 17.877 37.59 31.103 49.493 13.612 11.648 33.11 18.518 60.928 19.627 5.718 0 7.851 2.945 7.851 8.148v20.394l-0.809 2.602z" />
<glyph unicode="&#xe909;" glyph-name="bs-whatsapp" d="M1024 461.187c0-275.49-225.041-498.813-502.693-498.813-88.144 0-170.951 22.528-242.995 62.066l-278.312-88.439 90.738 267.628c-45.773 75.162-72.135 163.317-72.135 257.559 0 275.49 225.064 498.813 502.704 498.813 277.675 0 502.693-223.323 502.693-498.813zM521.307 880.56c-233.062 0-422.639-188.132-422.639-419.374 0-91.762 29.912-176.742 80.509-245.874l-52.804-155.75 162.418 51.621c66.731-43.816 146.671-69.37 232.528-69.37 233.028 0 422.639 188.109 422.639 419.351s-189.599 419.396-422.65 419.396zM775.157 346.305c-3.106 5.086-11.31 8.158-23.62 14.268-12.334 6.11-72.932 35.703-84.196 39.765-11.298 4.073-19.536 6.121-27.739-6.11-8.203-12.242-31.824-39.765-39.026-47.923-7.191-8.181-14.37-9.205-26.704-3.083-12.311 6.11-52.008 19.035-99.078 60.678-36.625 32.404-61.36 72.408-68.551 84.662-7.179 12.231-0.751 18.842 5.404 24.929 5.552 5.484 12.334 14.279 18.489 21.413 6.178 7.145 8.226 12.231 12.311 20.4 4.13 8.158 2.071 15.292-1.024 21.424-3.072 6.11-27.739 66.276-38.002 90.761-10.263 24.462-20.514 20.389-27.716 20.389-7.179 0-15.406 1.024-23.62 1.024s-21.572-3.061-32.87-15.292c-11.287-12.242-43.11-41.825-43.11-101.979 0-60.166 44.134-118.295 50.313-126.441 6.155-8.146 85.22-135.623 210.489-184.582 125.281-48.936 125.281-32.609 147.877-30.561 22.574 2.037 72.886 29.571 83.194 58.106 10.24 28.581 10.24 53.055 7.179 58.152z" />
<glyph unicode="&#xe90a;" glyph-name="bs-wechat" d="M427.52 917.333c235.776 0 427.52-158.72 427.52-353.877 0-19.029-2.389-37.717-5.973-56.32 103.253-44.373 174.933-133.632 174.933-237.483 0-50.688-17.835-97.621-46.933-137.984l18.773-152.917-120.32 65.28c-49.184-26.604-107.667-42.241-169.802-42.241-0.244 0-0.488 0-0.732 0.001h0.038c-152.32 0-279.808 90.453-311.125 210.773-67.77 4.113-130.579 21.464-187.163 49.487l2.843-1.273-170.411-70.656 26.027 187.733c-40.704 54.187-65.195 117.419-65.195 185.685 0 194.987 191.829 353.792 427.52 353.792zM705.024 452.011c-128.768 0-233.557-81.92-233.557-182.443 0-100.693 104.789-182.443 233.557-182.443 128.853 0 233.728 81.835 233.728 182.443 0 75.093-58.539 139.605-141.653 167.509l-2.901 0.939c-26.584 8.875-57.191 13.995-88.995 13.995-0.063 0-0.126 0-0.188 0h0.010zM597.163 359.851c0.58 0.027 1.26 0.043 1.944 0.043 24.46 0 44.288-19.828 44.288-44.288s-19.828-44.288-44.288-44.288c-0.684 0-1.364 0.015-2.040 0.046l0.096-0.003c-23.609 1.069-42.344 20.469-42.344 44.245s18.736 43.176 42.248 44.242l0.096 0.003zM812.373 359.851c0.822 0.054 1.783 0.085 2.751 0.085 24.507 0 44.373-19.867 44.373-44.373s-19.867-44.373-44.373-44.373c-0.968 0-1.928 0.031-2.881 0.092l0.13-0.007c-23.294 1.491-41.623 20.749-41.623 44.288s18.329 42.797 41.493 44.281l0.13 0.007zM427.52 832c-188.587 0-342.187-120.576-342.187-268.544 0-136.533 130.56-249.6 299.008-266.24 5.291 55.467 33.28 143.104 146.773 206.165 83.797 46.421 181.077 39.083 236.373 29.099 1.536 10.24 2.304 20.651 2.304 30.976 0 147.968-153.6 268.459-342.187 268.459zM280.576 704.853c33.118-0.049 59.947-26.907 59.947-60.032 0-33.155-26.877-60.032-60.032-60.032-0.030 0-0.060 0-0.090 0h0.005c-33.118 0.049-59.947 26.907-59.947 60.032 0 33.155 26.877 60.032 60.032 60.032 0.030 0 0.060 0 0.090 0h-0.005zM607.659 704.853c33.136-0.024 59.989-26.892 59.989-60.032 0-33.155-26.877-60.032-60.032-60.032-0.015 0-0.030 0-0.045 0h0.002c-33.113 0.024-59.947 26.873-59.947 59.989 0 33.131 26.858 59.989 59.989 59.989 0.015 0 0.030 0 0.045 0h-0.002z" />
<glyph unicode="&#xe90b;" glyph-name="bs-vk" d="M831.96 424.297c-2.050 6.149 6.149 6.149 24.594 26.644 18.446 18.446 79.931 96.327 127.070 155.763s40.99 98.377 38.941 133.219c-2.050 36.891-22.545 53.287-43.040 61.485s-120.921 4.099-137.318 2.050c-16.396-2.050-24.594-10.248-34.842-24.594s-67.634-104.525-92.228-133.219c-22.545-28.693-71.733-73.783-75.832-71.733s-4.099 118.872-6.149 145.516c-4.099 26.644-55.337 51.238-88.129 53.287s-172.159-4.099-188.556-8.198c-16.396-4.099-26.644-20.495-24.594-26.644s30.743-34.842 38.941-45.089 16.396-110.674 16.396-153.714c0-40.99-16.396-59.436-22.545-57.386s-32.792 12.297-63.535 49.188c-32.792 36.891-114.773 209.051-118.872 213.15-4.099 6.149-18.446 8.198-65.585 10.248s-94.278-4.099-102.476-18.446c-24.594-40.99-12.297-125.021 0-161.912s34.842-100.426 79.931-170.11c45.089-71.733 114.773-145.516 182.407-211.1s116.822-86.080 145.516-96.327 81.981-6.149 127.070-4.099c45.089 2.050 63.535 20.495 71.733 43.040 10.248 22.545 8.198 79.931 6.149 86.080s-2.050 30.743 8.198 32.792c10.248 0 18.446-12.297 34.842-30.743s43.040-92.228 53.287-100.426c12.297-8.198 34.842-14.347 73.783-14.347s120.921 2.050 137.318 8.198c16.396 6.149 51.238 47.139 57.386 73.783s-14.347 53.287-32.792 88.129c-22.545 36.891-125.021 141.417-127.070 145.516zM963.129 190.652c-2.050 4.099-75.832 94.278-100.426 127.070s-36.891 45.089-43.040 40.99c-8.198-4.099-4.099-12.297 0-16.396s131.169-155.763 129.12-157.813-24.594-8.198-26.644-4.099c-2.050 4.099-49.188 73.783-81.981 108.624-30.743 36.891-51.238 53.287-57.386 51.238s-8.198-12.297-2.050-18.446 47.139-36.891 73.783-73.783c26.644-36.891 53.287-67.634 49.188-69.684-4.099-4.099-28.693-2.050-28.693-2.050-2.050 2.050-55.337 71.733-81.981 100.426s-30.743 30.743-38.941 28.693c-8.198-4.099 8.198-18.446 20.495-30.743s73.783-86.080 77.882-90.179c4.099-4.099 6.149-12.297 2.050-12.297s-28.693 0-30.743 2.050-86.080 122.971-94.278 122.971c-8.198 2.050-12.297-4.099-10.248-8.198s88.129-110.674 81.981-112.723-20.495-2.050-24.594 4.099c-6.149 4.099-57.386 81.981-90.179 108.624s-53.287 34.842-69.684 34.842-26.644-14.347-26.644-14.347-47.139 55.337-53.287 53.287c-8.198-2.050-8.198-8.198-4.099-14.347s47.139-47.139 47.139-51.238c0-2.050-4.099-28.693-4.099-30.743s-61.485 65.585-65.585 65.585c-4.099-2.050-8.198-14.347-6.149-18.446s77.882-65.585 77.882-71.733c2.050-6.149 4.099-45.089 0-40.99s-81.981 96.327-86.080 96.327-12.297-12.297-10.248-16.396c4.099-4.099 94.278-92.228 92.228-96.327 0-4.099-8.198-10.248-14.347-8.198s-86.080 96.327-94.278 94.278c-8.198-4.099-14.347-8.198-8.198-14.347s84.030-79.931 81.981-84.030-24.594-2.050-28.693 0-67.634 86.080-79.931 81.981c-10.248-2.050-12.297-12.297-8.198-16.396 4.099-6.149 71.733-65.585 67.634-67.634s-24.594-2.050-28.693 0c-6.149 2.050-59.436 65.585-67.634 67.634-6.149 2.050-12.297-8.198-10.248-12.297s45.089-45.089 43.040-49.188c-2.050-4.099-59.436 14.347-88.129 36.891s-98.377 88.129-143.466 149.615-71.733 94.278-112.723 174.209-75.832 170.11-55.337 192.655c6.149 8.198 20.495 12.297 38.941 12.297s88.129 2.050 92.228-4.099 61.485-135.268 94.278-182.407 63.535-77.882 81.981-86.080c20.495-8.198 47.139 0 57.386 24.594s10.248 65.585 6.149 98.377c-4.099 32.792 0 88.129-14.347 110.674s-26.644 38.941-26.644 40.99c2.050 4.099 73.783 8.198 122.971 10.248s86.080 6.149 88.129-20.495 2.050-63.535 0-120.921c-2.050-55.337 0-69.684 18.446-77.882s43.040 2.050 84.030 38.941 81.981 94.278 108.624 135.268 49.188 69.684 51.238 71.733c4.099 2.050 90.179 8.198 98.377 2.050s34.842-40.99 38.941-43.040c4.099-4.099 4.099-8.198 4.099-10.248s-6.149-18.446-10.248-14.347-34.842 36.891-40.99 34.842c-6.149-2.050-8.198-6.149-4.099-14.347 6.149-6.149 38.941-32.792 36.891-36.891 0-4.099-12.297-22.545-14.347-20.495s-38.941 49.188-45.089 47.139c-4.099-2.050-12.297-12.297-6.149-16.396 4.099-6.149 38.941-40.99 38.941-45.089s-12.297-22.545-14.347-20.495-40.99 43.040-45.089 40.99-10.248-6.149-6.149-12.297c4.099-6.149 45.089-38.941 43.040-45.089s-14.347-28.693-16.396-26.644c-4.099 2.050-47.139 55.337-51.238 51.238s-10.248-8.198-6.149-12.297 45.089-51.238 45.089-53.287-10.248-16.396-12.297-16.396-40.99 47.139-45.089 45.089-12.297-8.198-10.248-12.297 43.040-43.040 36.891-51.238c-6.149-8.198-10.248-14.347-14.347-14.347s-45.089 51.238-49.188 49.188c-4.099-2.050-12.297-6.149-10.248-12.297s49.188-49.188 47.139-53.287-14.347-14.347-18.446-12.297c-4.099 2.050-40.99 45.089-47.139 43.040s-10.248-2.050-10.248-8.198 40.99-43.040 38.941-47.139c-4.099-4.099-24.594-14.347-32.792-22.545s-8.198-14.347-2.050-18.446 90.179-71.733 137.318-133.219c47.139-61.485 59.436-86.080 65.585-102.476 12.297-14.347 12.297-32.792 10.248-28.693zM116.679 709.18c-6.149 4.099-59.436 4.099-61.485-2.050s18.446-71.733 24.594-75.832c8.198-4.099 14.347 2.050 16.396 6.149s-14.347 49.188-12.297 53.287c0 4.099 28.693 2.050 32.792 2.050 4.099 2.050 6.149 12.297 0 16.396zM460.998 729.675c-2.050-4.099 0-14.347 6.149-16.396s49.188-4.099 53.287-6.149c4.099-2.050 4.099-24.594 4.099-32.792 2.050-8.198 14.347-4.099 18.446 0s2.050 49.188 0 53.287-79.931 4.099-81.981 2.050z" />
<glyph unicode="&#xe90c;" glyph-name="bs-visual-studio" d="M750.016 956.992c-16.16 0.16-32-5.664-44-16.672-0.672-0.672-1.504-1.344-2.176-2.016l-339.84-375.84-198.496 162.656-17.344 15.008c-12.16 10.016-28.992 12.672-43.68 6.496-0.16 0-0.32-0.16-0.512-0.16l-77.504-32c-0.992-0.512-2.176-0.992-3.168-1.504-0.832-0.512-1.504-0.832-2.176-1.152-0.512-0.32-0.992-0.672-1.504-0.992-0.672-0.512-1.504-0.992-2.176-1.504-0.32-0.32-0.832-0.672-1.152-0.992-0.672-0.512-1.344-0.992-1.824-1.504-0.672-0.512-1.152-0.992-1.664-1.504-0.32-0.32-0.832-0.832-1.344-1.504-0.512-0.512-0.992-0.992-1.344-1.504-0.512-0.672-0.992-1.344-1.504-2.016-0.32-0.32-0.672-0.832-0.992-1.344-0.512-0.672-0.992-1.504-1.504-2.176-0.16-0.512-0.512-0.992-0.832-1.504-0.32-0.672-0.672-1.344-0.992-2.176-0.32-0.672-0.512-1.152-0.832-1.824-0.16-0.672-0.512-1.344-0.672-2.016-0.32-0.672-0.512-1.344-0.672-2.016-0.32-0.672-0.512-1.504-0.672-2.336-0.16-0.512-0.32-0.992-0.512-1.664 0-0.672-0.16-1.504-0.32-2.336 0-0.672-0.16-1.344-0.16-2.176-0.16-1.152-0.16-2.336-0.16-3.488v-454.656c0-17.152 10.336-32.672 26.176-39.168l77.504-32.672c14.848-6.176 32-3.328 44.16 7.008l17.344 15.008 198.496 162.656 339.84-375.84c0.992-0.992 2.176-2.016 3.168-2.848 0.832-0.672 1.664-1.504 2.496-2.176 0.672-0.672 1.504-1.152 2.336-1.824 0.992-0.672 1.824-1.152 2.656-1.824 0.992-0.512 2.016-1.152 2.848-1.664 0.992-0.512 1.824-0.992 2.848-1.504s1.824-0.832 2.848-1.344c0.992-0.512 2.016-0.832 3.008-1.152 0.992-0.512 2.176-0.832 3.168-1.152 0.832-0.32 1.824-0.512 2.848-0.832s2.176-0.672 3.328-0.832c0.992-0.16 2.016-0.512 3.008-0.672s2.016-0.32 3.168-0.32c0.992-0.16 2.176-0.32 3.168-0.32s2.016-0.16 3.168-0.16c0.992 0 2.176 0 3.168 0 1.152 0 2.336 0.16 3.328 0.16 0.992 0.16 2.016 0.32 2.848 0.32 1.344 0.16 2.496 0.32 3.84 0.672 0.832 0.16 1.664 0.32 2.496 0.512 1.152 0.32 2.336 0.512 3.488 0.992 0.832 0.16 1.824 0.512 2.848 0.832s2.016 0.672 3.008 1.152c1.344 0.512 2.496 0.992 3.84 1.504l210.848 101.504c7.68 3.68 14.656 8.832 20.16 15.328 1.504 1.504 2.656 3.168 4 4.832 0 0 0 0.16 0.16 0.32 1.152 1.664 2.336 3.488 3.328 5.344 0.992 1.664 1.824 3.328 2.656 4.992 0.16 0.32 0.16 0.512 0.32 0.832 0.672 1.504 1.344 3.008 1.824 4.512 0.16 0.512 0.32 0.992 0.512 1.664 0.512 1.504 0.992 3.008 1.344 4.512 0.16 0.512 0.32 0.992 0.32 1.504 0.32 1.504 0.512 3.008 0.832 4.32 0 0.672 0.16 1.504 0.32 2.176 0 1.344 0.16 2.496 0.16 3.84 0.16 1.152 0.16 2.336 0.16 3.328v687.488c0 0.512 0 0.992 0 1.504 0 2.016-0.16 4.16-0.32 6.336-2.656 21.664-16.16 40.512-35.84 49.824l-210.848 101.344c-8.32 4-17.344 6.176-26.496 6.336zM767.84 664.672v-433.344l-264.32 216.672zM128.16 594.176l132.16-146.176-132.16-146.176z" />
<glyph unicode="&#xe90d;" glyph-name="bs-viber" d="M609.543 960h-195.087c-204.334 0-370.571-166.21-370.571-370.495v-175.734c0-152.133 93.486-288.858 234.057-344.552v-113.923c0-7.714 4.543-14.705 11.599-17.829 2.534-1.123 5.229-1.675 7.905-1.675 4.744 0 9.438 1.732 13.095 5.046l113.094 102.439h185.906c204.334 0 370.571 166.21 370.571 370.495v175.734c0 204.285-166.237 370.495-370.571 370.495zM941.105 413.771c0-182.781-148.734-331.485-331.561-331.485h-193.429c-4.839 0-9.505-1.791-13.095-5.048l-86.067-77.962v83.467c0 8.268-5.21 15.639-13.010 18.381-132.209 46.743-221.047 172.381-221.047 312.648v175.734c0 182.781 148.734 331.485 331.561 331.485h195.087c182.828 0 331.561-148.704 331.561-331.485v-175.734zM769.771 365.237l-119.886 77.867c-13.113 8.514-28.703 11.41-43.989 8.249-15.296-3.22-28.43-12.249-36.963-25.411l-5.637-8.666c-51.887 17.143-109.096 39.049-143.342 138.191l14.19 12.323c24.334 21.163 26.895 58.191 5.725 82.571l-93.781 107.887c-7.069 8.132-19.392 8.97-27.525 1.923l-58.875-51.18c-51.658-44.896-27.515-111.316-19.581-133.143 0.351-0.971 0.78-1.906 1.285-2.818 2.048-3.677 50.952-90.935 129.913-171.373 79.287-80.761 222.438-155.352 226.829-157.522 16.353-10.611 34.744-15.695 52.934-15.695 31.943 0 63.275 15.656 81.951 44.381l42.487 65.427c5.865 9.048 3.294 21.126-5.734 26.991zM700.305 294.076c-17.582-27.067-53.886-34.761-82.571-16.267-1.428 0.743-143.629 74.801-218.59 151.162-70.057 71.372-116.572 150.647-122.925 161.714-15.458 43.314-12.723 69.944 9.048 88.858l44.17 38.381 80.982-93.163c7.189-8.266 6.362-20.361-1.876-27.523l-23.932-20.8c-5.83-5.067-8.126-13.086-5.849-20.459 40.81-132.589 120.153-158.628 178.086-177.657l8.438-2.779c8.44-2.857 17.697 0.4 22.524 7.866l13.839 21.295c2.857 4.4 7.219 7.39 12.286 8.457 5.085 1.084 10.285 0.076 14.695-2.781l103.533-67.239-31.857-49.066zM556.514 643.104c-10.38 2.992-21.161-3.047-24.104-13.427-2.943-10.363 3.066-21.143 13.419-24.096 29.066-8.266 52.208-31.467 60.408-60.553 2.421-8.59 10.248-14.209 18.764-14.209 1.752 0 3.532 0.228 5.303 0.724 10.363 2.934 16.402 13.696 13.476 24.077-11.837 42.019-45.284 75.542-87.266 87.485zM704.953 526.63c1.752 0 3.532 0.228 5.305 0.724 10.371 2.934 16.4 13.714 13.476 24.075-23.010 81.583-87.953 146.668-169.477 169.867-10.361 2.99-21.153-3.086-24.094-13.429-2.943-10.361 3.066-21.141 13.427-24.094 68.59-19.505 123.239-74.286 142.601-142.933 2.428-8.592 10.248-14.209 18.762-14.209zM545.856 812.115c-10.38 2.99-21.161-3.049-24.104-13.429-2.943-10.363 3.066-21.143 13.419-24.096 116.239-33.066 208.818-125.866 241.619-242.171 2.419-8.59 10.248-14.209 18.762-14.209 1.752 0 3.534 0.228 5.305 0.724 10.361 2.934 16.4 13.714 13.476 24.077-36.449 129.239-139.324 232.343-268.477 269.105z" />
<glyph unicode="&#xe90e;" glyph-name="bs-usersgroup" d="M800.459 347.519c15.053-7.527 22.58-20.326 22.58-38.391v-171.602c0-11.288-3.387-21.075-10.161-29.354s-15.431-12.419-25.967-12.419h-554.337c-9.785 0-18.064 4.14-24.838 12.419s-10.161 18.066-10.161 29.354v171.602c0 18.066 7.527 30.863 22.58 38.391l216.767 100.481c-28.601 17.311-50.429 42.149-65.482 74.514-14.301 28.601-21.451 59.084-21.451 91.449 0 9.785 0.753 19.193 2.258 28.225s3.387 17.688 5.645 25.967c10.537 38.386 29.542 69.998 57.014 94.836s59.272 37.257 95.4 37.257c36.879 0 69.245-12.795 97.094-38.386s46.667-57.955 56.45-97.094c3.765-18.817 5.651-35.752 5.651-50.805 0-30.107-6.025-59.084-18.062-86.933-15.053-33.87-36.881-59.46-65.482-76.772l64.351-30.483 150.151-72.256zM197.574 394.939c-16.559-7.527-29.542-19.010-38.95-34.434-9.408-15.431-14.112-32.553-14.112-51.377v-145.635h-116.287c-8.279 0-15.053 3.195-20.322 9.591-5.269 6.403-7.903 14.492-7.903 24.273v137.741c0 16.564 6.021 27.098 18.064 31.614l174.994 81.288c-21.075 12.795-38.010 31.047-50.805 54.756s-19.193 50.24-19.193 79.594c0 20.322 3.387 39.703 10.161 58.143s15.994 34.434 27.66 47.982c11.666 13.548 25.214 24.273 40.644 32.176s32.176 11.854 50.24 11.854c12.043 0 23.333-1.882 33.87-5.645s20.698-8.656 30.483-14.677c-12.795-31.612-19.193-64.353-19.193-98.223 0-26.343 3.763-51.746 11.29-76.207s18.064-46.477 31.612-66.046c-8.279-9.032-16.935-16.182-25.967-21.451l-116.287-55.319zM1005.938 366.712c12.037-6.021 18.062-16.56 18.062-31.614v-137.738c0-9.783-2.638-17.872-7.901-24.273-5.27-6.396-12.044-9.591-20.329-9.591h-119.672v145.635c0 18.818-4.706 35.94-14.109 51.377-9.412 15.424-22.019 26.908-37.821 34.434l-111.771 53.057c-10.535 6.021-20.704 14.677-30.481 25.967 12.799 19.569 22.768 41.208 29.917 64.917 7.152 23.709 10.725 48.735 10.725 75.078 0 17.311-1.505 33.87-4.514 49.676-3.013 15.806-7.527 31.236-13.548 46.289 9.783 6.774 20.322 12.231 31.61 16.37 11.292 4.14 22.958 6.209 35.004 6.209 18.066 0 35.001-3.951 50.799-11.854 15.806-7.903 29.549-18.628 41.216-32.176 11.659-13.548 20.879-29.542 27.653-47.982 6.781-18.44 10.168-37.821 10.168-58.143 0-28.601-6.403-54.756-19.193-78.465-12.801-23.709-28.979-41.961-48.547-54.756l172.731-82.417z" />
<glyph unicode="&#xe90f;" glyph-name="bs-user-protect" d="M411.52 367.744c0 0-14.336-36.821-14.251-36.992l22.741-32.341h50.261l22.827 32.341c-0.171 0.597-14.251 36.992-14.251 36.992-1.664-0.256-65.664-0.256-67.328 0zM282.069 582.656c29.355-85.76 84.48-150.955 163.072-150.955 75.733 0 131.755 64.256 162.005 149.888 61.184 61.653 46.763 107.733 32.683 129.749 33.152 158.976-68.309 248.661-200.405 248.661-236.757 0-195.499-259.413-195.499-259.413 0.256-0.043 0.597-0.043 0.853-0.085-10.88-24.405-14.037-65.451 37.291-117.845zM380.928 775.253l-17.28-64.384c84.48 25.771 95.829 39.936 109.184 49.621 13.824 10.027 25.515 20.224 34.987 29.483 4.352-7.851 9.813-15.019 16.171-21.504 6.229-6.571 15.488 59.605 15.488 59.605s23.339-40.192 26.581-53.205c2.347-9.216 17.067-46.507 25.003-49.92-2.901-123.093-58.155-251.733-145.92-251.733-81.664 0-135.168 111.573-144.597 226.347 22.443 1.365 80.384 75.691 80.384 75.691zM739.456 209.92c-31.701 0-57.515 25.771-57.515 57.515v159.829l-94.123 34.688-15.744-38.4 33.237-12.245-121.259-400-15.232 268.587h-47.232l-15.104-263.68-119.936 395.648 31.915 11.648-15.915 38.357-119.168-43.947c-1.493-0.725-113.664-54.059-162.731-183.253-9.984-26.283-17.323-55.765-20.651-88.576 105.6-128.171 265.685-210.005 444.843-210.091h0.853c9.685 0 19.243 0.256 28.843 0.768h0.597c167.168 8.576 315.52 88.235 415.317 209.408-2.347 23.083-7.211 43.904-13.099 63.744h-137.899zM712.832 99.797c-49.237-19.755-99.84-23.253-128.981-23.253-9.813 0-17.152 0.469-21.333 0.725v24.747c1.323-0.085 85.077-9.899 150.315 23.68v-25.899zM1009.152 456.448h-19.84v65.92c0 32.896-12.501 63.019-33.024 84.949-20.523 22.016-49.707 36.139-82.048 36.096-32.213 0.043-61.44-14.080-81.963-36.096-20.608-21.973-33.109-52.096-33.109-84.949v-65.92h-19.712c-8.235 0-14.848-6.571-14.848-14.805v-174.251c0-8.149 6.571-14.848 14.848-14.848h269.696c8.107 0 14.848 6.656 14.848 14.848v174.251c0 8.235-6.699 14.805-14.848 14.805zM886.571 359.552v-32.427c0-5.163-4.224-9.387-9.344-9.387h-5.973c-5.163 0-9.301 4.224-9.301 9.387v32.427c-6.784 4.181-11.349 11.52-11.349 20.053 0 13.099 10.581 23.637 23.595 23.637 13.056 0 23.723-10.539 23.723-23.637 0.043-8.576-4.523-15.915-11.349-20.053zM934.656 456.448h-120.832v65.92c0 18.944 7.296 35.755 18.347 47.701 11.264 11.819 25.856 18.731 42.069 18.731 16.256 0 30.848-6.912 42.069-18.731 11.179-11.947 18.347-28.757 18.347-47.701v-65.92z" />
<glyph unicode="&#xe910;" glyph-name="bs-user" d="M478.336 367.744c0 0-14.336-36.821-14.251-36.992l22.784-32.341h50.261l22.784 32.341c-0.171 0.597-14.251 36.992-14.251 36.992-1.664-0.256-65.664-0.256-67.328 0zM348.928 582.656c29.312-85.76 84.523-150.955 163.115-150.955 75.691 0 131.712 64.256 162.005 149.888 61.141 61.653 46.72 107.733 32.597 129.749 33.195 158.976-68.309 248.661-200.405 248.661-236.757 0-195.456-259.413-195.456-259.413 0.256-0.043 0.555-0.043 0.811-0.085-10.837-24.405-14.037-65.451 37.333-117.845zM447.787 775.253l-17.28-64.384c84.523 25.771 95.872 39.936 109.184 49.621 13.824 10.027 25.515 20.224 34.987 29.483 4.352-7.851 9.856-15.019 16.128-21.504 6.272-6.571 15.531 59.605 15.531 59.605s23.381-40.192 26.624-53.205c2.304-9.216 17.024-46.507 25.003-49.92-2.987-123.093-58.197-251.733-145.92-251.733-81.707 0-135.211 111.573-144.597 226.347 22.4 1.365 80.341 75.691 80.341 75.691zM936.533 234.795c-49.109 129.195-161.237 182.528-162.731 183.253l-119.125 43.861-15.744-38.4 33.237-12.245-121.216-400-15.317 268.587h-47.189l-15.104-263.68-119.893 395.648 31.872 11.691-15.915 38.357-119.168-43.904c-1.493-0.725-113.621-54.059-162.731-183.253-9.984-26.325-17.365-55.808-20.651-88.619 105.6-128.171 265.643-210.005 444.8-210.091 0.256 0 0.512 0 0.811 0 9.685 0 19.285 0.256 28.843 0.768 0.213 0 0.427 0 0.64 0 167.125 8.576 315.477 88.235 415.275 209.408-3.328 32.811-10.667 62.336-20.693 88.619zM629.376 102.016c1.323-0.128 85.077-9.941 150.272 23.68v-25.899c-49.195-19.755-99.797-23.253-128.981-23.253-9.813 0-17.152 0.427-21.291 0.683v24.789z" />
<glyph unicode="&#xe911;" glyph-name="bs-update" d="M986.553 650.96l-45.257-45.278-271.566 271.528 45.257 45.282c49.993 49.999 131.063 49.999 181.060 0l90.506-90.529c49.925-49.972 49.925-131.008 0-181.003zM352.926 107.937c-12.498-12.498-12.498-32.738 0-45.238 12.504-12.567 32.755-12.567 45.253 0l497.869 497.732-45.308 45.282-497.814-497.776zM126.623 334.187c-12.504-12.508-12.504-32.74 0-45.247 12.498-12.5 32.749-12.5 45.253 0l497.854 497.77-45.238 45.253-497.869-497.776zM714.928 741.491l-497.81-497.799c-24.997-24.949-24.934-65.508 0-90.506 25.008-25 65.502-25.116 90.565 0.068l497.81 497.706-90.565 90.531zM307.555 17.562c-15.307 15.326-22.685 34.747-25.43 54.76-6.506-1.005-13.059-1.939-19.753-1.939-34.192 0-66.306 13.365-90.495 37.554-24.189 24.25-37.502 56.32-37.502 90.508 0 6.234 0.935 12.31 1.813 18.367-20.688 2.817-39.81 11.879-54.811 26.88-1.439 1.429-1.935 3.368-3.246 4.934l-78.131-312.617 311.805 78.055c-1.374 1.251-2.929 2.188-4.25 3.499z" />
<glyph unicode="&#xe912;" glyph-name="bs-tweeter" d="M1024 765.504c-38.080-16.704-78.656-27.776-120.96-33.152 43.52 25.984 76.736 66.816 92.352 116.032-40.576-24.192-85.376-41.28-133.12-50.816-38.528 41.024-93.44 66.432-153.344 66.432-116.224 0-209.792-94.336-209.792-209.984 0-16.64 1.408-32.64 4.864-47.872-174.528 8.512-328.96 92.16-432.704 219.584-18.112-31.424-28.736-67.392-28.736-106.112 0-72.704 37.44-137.152 93.248-174.464-33.728 0.64-66.816 10.432-94.848 25.856 0-0.64 0-1.472 0-2.304 0-102.016 72.768-186.752 168.192-206.272-17.088-4.672-35.712-6.912-55.040-6.912-13.44 0-27.008 0.768-39.744 3.584 27.2-83.136 104.384-144.256 196.16-146.24-71.424-55.872-162.112-89.536-260.288-89.536-17.216 0-33.728 0.768-50.24 2.88 92.992-59.968 203.2-94.208 322.048-94.208 386.304 0 597.504 320 597.504 597.376 0 9.28-0.32 18.24-0.768 27.136 41.664 29.568 76.672 66.496 105.216 108.992z" />
<glyph unicode="&#xe913;" glyph-name="bs-tilde-2" d="M985.708 825.087c-51.055 52.079-133.8 52.079-184.855 0l-462.154-471.372-115.555 117.859c-51.055 52.079-133.8 52.079-184.855 0s-51.055-136.489 0-188.536l207.966-212.125c51.055-52.079 133.8-52.079 184.855 0l554.597 565.607c51.059 52.079 51.059 136.489 0.002 188.568z" />
<glyph unicode="&#xe914;" glyph-name="bs-tiktok" d="M308.706 163.774c20.277-10.699 42.861-16.284 65.786-16.275 76.363 0 138.701 60.742 141.515 136.448l0.282 676.053h168.674c0.015-14.359 1.35-28.687 3.987-42.801l45.193-0.023c-0.023-56.58 20.484-111.248 57.719-153.851l0.047-0.054c37.982-24.812 82.377-38.005 127.746-37.962v-37.568c15.878-3.401 32.297-5.212 49.182-5.212v-168.719c-84.213-0.098-166.321 26.306-234.692 75.471v-342.812c0-171.181-139.287-310.468-310.494-310.468-42.635-0.011-84.813 8.785-123.891 25.837-39.051 17.037-74.161 41.952-103.14 73.184l-0.064 0.045c-80.068 56.215-132.556 149.184-132.556 254.206 0 171.206 139.287 310.515 310.492 310.515 14.001-0.066 27.979-1.086 41.841-3.049v-39.94c0.975 0.019 1.943 0.053 2.916 0.085 1.459 0.051 2.923 0.102 4.401 0.102 13.999-0.066 27.979-1.086 41.839-3.049v-172.215c-13.227 4.151-27.228 6.569-41.839 6.569-37.598-0.045-73.643-15.002-100.226-41.589s-41.534-62.635-41.57-100.23c0.002-29.696 9.387-58.633 26.816-82.677l0.036-0.019zM133.638 135.686c14.41-37.545 35.915-71.603 62.849-100.548-27.482 29.41-48.704 63.614-62.849 100.548z" />
<glyph unicode="&#xe915;" glyph-name="bs-telegram" d="M940.871 869.155l-907.216-351.653c-36.508-16.375-48.856-49.171-8.825-66.968l232.742-74.345 562.735 349.579c30.725 21.947 62.182 16.094 35.115-8.047l-483.314-439.87-15.183-186.152c14.063-28.743 39.811-28.876 56.234-14.591l133.717 127.178 229.010-172.373c53.189-31.653 82.13-11.226 93.574 46.787l150.211 714.94c15.596 71.412-11.001 102.876-78.799 75.516z" />
<glyph unicode="&#xe916;" glyph-name="bs-steam" d="M947.199 578.197c0-52.309-42.197-94.507-94.422-94.507-52.651 0-94.891 42.154-94.891 94.507 0 52.097 42.197 94.507 94.891 94.507 52.225 0 94.422-42.368 94.422-94.507zM909.099 418.752l-114.815-97.919c1.621-7.851 2.090-15.787 2.090-23.85 0-83.157-67.413-150.315-151.125-150.315-72.021 0-132.095 50.090-147.242 117.163l-283.775 96c-22.272-16.982-50.219-27.052-80.639-27.052-73.73-0.128-133.592 59.136-133.592 132.524 0 73.514 59.862 133.076 133.505 133.076 63.445 0 116.437-43.989 130.005-103.039l273.791-92.586c26.795 27.009 63.659 43.946 104.534 44.672l41.044 124.416c-0.043 2.516-0.683 4.949-0.683 7.467 0 93.696 76.756 170.026 170.88 170.026 94.719 0.043 170.923-76.075 170.923-169.983 0-74.54-48-137.601-114.901-160.599zM217.514 510.87c-16.042 28.63-46.55 48.043-81.665 48.043-51.797 0-93.441-41.599-93.441-93.055 0-51.242 41.685-93.098 93.441-93.098 9.515 0 18.646 1.195 27.178 4.011l-44.415 15.018c-35.626 19.072-49.152 63.53-30.037 99.071 19.327 35.498 63.873 49.024 99.499 29.951l29.439-9.941zM720.084 578.837c0-73.002 59.648-132.053 132.779-132.053 73.174 0 132.352 59.093 132.352 132.053 0 72.917-59.179 132.010-132.352 132.010-73.131 0.043-132.779-59.007-132.779-132.010zM722.814 283.884c0 55.851-45.567 100.735-100.992 100.735-7.936 0-15.616-0.895-22.826-2.73l56.191-19.072c35.883-19.072 49.578-63.233 30.037-99.030-19.115-35.798-63.402-49.024-99.242-29.994l-60.886 20.779c12.8-41.556 51.030-70.998 96.683-70.998 55.979 0.086 101.035 45.143 101.035 100.311z" />
<glyph unicode="&#xe917;" glyph-name="bs-sound" d="M896.495 457.249c0 100.418-40.96 191.587-107.025 257.652l52.852 52.852c79.277-79.277 128.826-188.945 128.826-309.843s-48.888-230.565-128.826-309.843l-52.852 52.852c66.725 65.404 107.025 155.912 107.025 256.33v0zM653.378 578.147c31.050-31.050 50.209-73.992 50.209-120.898s-19.159-89.848-50.209-120.898l-52.852 52.852c17.837 17.177 28.408 41.621 28.408 68.046s-10.57 50.87-28.408 68.046l52.852 52.852zM747.85 673.28c55.494-55.494 89.187-131.468 89.187-215.37s-34.354-160.537-89.187-215.37l-52.852 52.852c41.621 41.621 67.386 99.097 67.386 163.179 0 63.422-25.765 120.898-67.386 163.179l52.852 51.53zM81.259 617.125h93.151v-319.092h-93.151v319.092zM213.388 617.125l327.019 194.23v-708.212l-327.019 194.89v319.092z" />
<glyph unicode="&#xe918;" glyph-name="bs-snapchat" d="M237.613 619.704c-1.566 40.006-3.243 80.349 6.972 119.248 17.883 68.106 58.525 121.277 120.793 153.192 104.38 53.499 210.636 53.173 310.814-9.832 77.904-48.998 114.679-123.766 112.147-216.446-1.089-39.925-3.011-79.833-5.089-119.722-0.962-18.472 2.436-23.405 21.16-25.464 18.867-2.077 36.181 3.906 52.86 11.554 14.318 6.564 28.070 5.587 41.83-0.787 24.673-11.431 27.737-33.122 5.402-48.367-13.582-9.267-29.662-14.979-44.853-21.766-14.877-6.646-30.867-11.202-44.908-19.227-22.776-13.014-31.062-33.713-20.584-57.48 42.516-96.454 107.438-168.824 214.954-193.773 5.618-1.305 14.381-5.479 14.793-9.1 0.686-6.034-2.434-14.966-7.121-18.63-9.999-7.822-21.36-15.278-33.369-18.891-27.228-8.187-55.048-14.617-82.915-20.354-9.742-2.001-15.088-6.192-17.378-15.151-3.196-12.51-6.038-25.115-9.287-37.613-3.603-13.853-7.656-16.621-22.079-14.95-22.27 2.578-44.444 6.333-66.775 7.91-42.168 2.978-80.406-8.138-114.534-33.744-17.013-12.769-34.559-25.11-53.020-35.62-69.559-39.599-139.711-39.527-209.411-0.138-14.201 8.023-28.264 16.83-40.765 27.23-52.151 43.391-111.595 49.953-175.437 36.819-36.079-7.421-36.772-6.869-44.517 29.315-6.882 32.162-7.081 31.299-38.556 38.547-26.211 6.033-52.177 13.538-77.641 22.188-9.612 3.266-18.57 10.509-25.927 17.843-9.671 9.638-5.098 21.34 7.989 24.112 108.015 22.88 173.346 95.255 217.127 191.062 11.775 25.768 3.761 47.267-20.981 61.192-13.77 7.752-29.44 12.055-43.964 18.557-15.183 6.795-31.215 12.639-44.737 21.987-21.852 15.101-18.938 36.369 5.084 47.729 12.218 5.778 24.467 6.958 37.339 0.83 17.719-8.438 36.372-13.419 56.338-11.473 20.089 1.958 24.036 6.874 22.616 26.298-1.769 24.283-2.939 48.608-4.37 72.915z" />
<glyph unicode="&#xe919;" glyph-name="bs-skype" d="M981.12 373.93c3.968 24.064 5.93 48.938 5.93 74.069 0 262.443-212.822 475.051-475.092 475.051-25.088 0-49.962-2.047-74.069-5.93-43.863 27.307-95.448 42.88-150.829 42.88-158.547 0-287.060-128.513-287.060-287.060 0-55.382 15.616-106.922 42.88-150.827-3.883-24.236-5.93-48.726-5.93-74.112 0-262.229 212.608-475.008 475.008-475.008 25.131 0 49.962 1.921 74.112 5.887 43.903-27.009 95.7-42.88 150.827-42.88 158.847 0 287.103 128.256 287.103 287.103 0 55.127-15.83 106.881-42.88 150.827zM737.749 231.98c-20.522-29.013-49.835-51.797-88.533-67.925-38.4-16.171-84.267-24.193-137.173-24.193-63.104 0-115.541 11.007-157.014 33.194-29.142 15.999-52.992 37.674-71.167 64.171-18.518 26.838-27.818 52.992-27.818 78.849 0 15.018 5.846 27.99 16.939 38.911 11.393 10.838 25.942 16.171 43.349 16.171 14.080 0 26.112-4.182 36.010-12.843 9.6-8.234 17.749-20.353 24.576-36.438 8.022-18.773 16.897-34.603 26.026-46.934 9.386-12.074 22.4-22.655 39.126-30.72 16.768-8.022 38.869-12.074 66.73-12.074 37.931 0 68.865 8.106 92.032 24.193 23.381 16.682 34.86 36.564 34.86 60.671 0 19.030-6.058 34.177-18.773 46.122-12.8 12.031-29.056 21.034-49.067 27.733-20.267 6.273-47.829 13.14-82.005 20.31-45.91 9.855-84.352 21.76-115.456 35.2-31.318 13.483-55.979 31.658-74.454 55.039-18.475 23.467-27.564 52.566-27.564 87.083 0 32.982 9.6 62.507 29.142 88.064 19.456 25.557 47.488 45.441 84.267 59.307 36.309 13.612 79.53 20.522 128.639 20.522 39.423 0 73.471-4.523 102.399-13.781 28.885-9.131 52.863-21.12 71.979-36.181 18.987-15.275 32.982-31.018 41.942-47.872 9.003-16.64 13.183-33.067 13.183-48.981 0-14.678-5.844-28.459-16.982-40.064-11.050-11.948-25.259-17.92-42.113-17.92-15.018 0-26.88 3.542-35.029 11.007-8.491 6.996-16.682 18.432-25.771 34.389-11.733 22.017-25.088 39.040-41.087 51.456-15.83 12.031-41.642 18.432-77.056 18.432-33.279 0-59.733-6.87-79.744-20.267-20.096-13.269-29.654-29.013-29.654-47.105 0-11.519 3.157-21.077 9.984-29.397 6.613-8.491 16.085-15.487 28.032-21.589 12.031-6.401 24.405-10.965 36.564-14.421 12.459-3.542 32.982-8.62 61.909-15.445 35.969-7.679 68.31-16.511 97.962-25.685 29.185-9.515 54.187-20.991 74.966-34.817 20.394-13.269 36.993-30.72 48.257-51.925 11.905-20.437 17.792-46.25 17.792-76.287-0.039-36.181-10.151-69.034-30.204-97.962z" />
<glyph unicode="&#xe91a;" glyph-name="bs-send" d="M994.905 548.965l-365.068 400.263c-14.473 14.363-37.935 14.363-52.408 0-8.332-8.26-11.293-19.443-10.050-30.225v-215.553c-303.084 0-548.825-245.706-548.825-548.825 0-77.736 16.373-151.598 45.537-218.624 43.308 228.637 261.456 402.272 502.666 402.272 0-21.601 0-219.282 0-219.282-1.243-10.782 2.377-17.761 10.672-26.056 16.008-16.007 40.86-9.392 54.417 2.192l363.058 398.070c7.711 7.674 11 17.835 10.49 27.885 0.51 10.050-2.779 20.211-10.49 27.885z" />
<glyph unicode="&#xe91b;" glyph-name="bs-sass-2" d="M512 960c282.848 0 512-229.152 512-512s-229.152-512-512-512c-282.848 0-512 229.152-512 512s229.152 512 512 512zM410.144 277.504c7.52-27.68 6.688-53.344-0.992-76.512l-2.688-7.68c-0.992-2.656-2.304-5.152-3.328-7.52-5.984-12.512-13.984-23.968-23.648-34.656-29.856-32.352-71.328-44.672-89.184-34.336-19.328 11.168-9.696 56.992 24.832 93.536 37.152 39.168 90.496 64.352 90.496 64.352v0.128zM833.152 740.832c-23.168 91.008-173.984 120.832-316.672 70.176-84.992-30.176-176.8-77.536-242.976-139.36-78.688-73.472-91.168-137.472-85.984-164.128 18.304-94.336 147.488-156.192 200.672-201.856v-0.352c-15.712-7.648-130.336-65.152-157.184-124.832-28.832-62.624 4.512-107.488 26.144-113.152 67.2-18.656 136.352 15.36 173.536 70.368 35.84 53.792 32.64 122.784 17.152 156.8 21.152 5.664 46.176 8.352 78.176 4.512 89.696-10.336 107.52-66.688 103.68-89.696s-22.368-36.48-28.832-40.32c-6.304-3.84-8.32-4.992-7.68-7.68 0.672-3.84 3.84-3.84 8.992-3.168 7.008 1.152 46.688 19.168 48.672 62.688 1.824 55.168-50.688 116.48-144 115.328-38.496-0.864-62.848-4-80-11.008-1.312 1.824-2.688 3.168-4.512 4.512-57.632 61.984-164.48 105.472-160 188.16 1.376 29.984 12.192 109.312 204.832 205.312 157.984 78.848 284.16 56.992 305.824 8.992 31.36-68.48-67.168-195.84-231.648-214.304-62.688-7.008-95.36 17.152-103.68 26.144-8.992 9.696-10.144 10.336-13.536 8.32-4.992-2.464-1.824-10.848 0-16 5.152-12.8 24.992-35.168 59.68-46.624 29.984-9.696 103.68-15.36 192 19.168 99.168 38.304 176.512 145.152 154.144 234.848z" />
<glyph unicode="&#xe91c;" glyph-name="bs-sass" d="M482.944 251.328c-0.48-0.96-0.96-1.728 0 0zM881.536 390.528c-32.192 0-63.936-7.36-92.8-21.6-9.44 19.040-19.2 35.68-20.8 48.16-1.92 14.56-4 23.2-1.76 40.48s12.32 41.76 12.16 43.52c-0.16 1.76-2.24 10.56-22.88 10.72s-38.4-4-40.48-9.44c-3.648-9.952-6.496-20.16-8.48-30.56-3.68-18.72-41.248-85.6-62.528-120.48-7.040 13.6-12.96 25.6-14.24 35.2-1.92 14.56-4 23.2-1.76 40.48s12.32 41.76 12.16 43.52c-0.16 1.76-2.24 10.56-22.848 10.72s-38.4-4-40.48-9.44c-2.080-5.44-4.32-18.24-8.48-30.56s-54.24-123.68-67.328-152.64c-6.72-14.72-12.48-26.56-16.64-34.56-0.64-1.28-1.12-2.080-1.44-2.72 0.48 0.8 0.8 1.6 0.8 1.28-3.52-6.88-5.6-10.72-5.6-10.72v-0.16c-2.72-5.12-5.76-9.76-7.2-9.76-0.96 0-3.040 13.44 0.48 31.84 7.52 38.72 25.28 98.88 25.12 100.96-0.16 1.12 3.36 11.52-11.68 17.12-14.56 5.28-19.84-3.52-21.12-3.52s-2.24-3.2-2.24-3.2c0 0 16.16 67.84-31.040 67.84-29.44 0-70.4-32.32-90.528-61.6-12.64-6.88-40-21.76-68.8-37.6-11.040-6.080-22.4-12.32-33.12-18.24-0.8 0.8-1.44 1.6-2.24 2.4-57.28 61.12-163.008 104.32-158.528 186.4 1.6 29.92 12 108.48 203.328 203.84 156.8 78.080 282.144 56.64 303.744 8.96 31.040-68-67.040-194.56-229.856-212.8-62.080-6.88-94.688 17.12-102.848 26.080-8.48 9.44-9.76 9.92-12.96 8.16-5.28-2.88-1.92-11.2 0-16.16 4.8-12.64 24.8-35.040 58.88-46.24 29.92-9.76 102.688-15.2 190.656 18.88 98.848 38.080 175.808 144.16 153.216 232.96-22.976 90.24-172.608 119.84-314.080 69.6-84.32-29.92-175.488-76.96-241.056-138.24-77.92-72.96-90.368-136.48-85.248-163.040 18.24-94.24 148.128-155.68 200.096-201.12-2.56-1.44-4.96-2.72-7.2-4-26.080-12.96-125.088-64.8-149.888-119.52-28-62.080 4.64-106.56 26.048-112.64 66.88-18.56 135.328 14.88 172.128 69.76s32.32 126.56 15.36 159.2c-0.16 0.48-0.48 0.8-0.64 1.28 6.72 4 13.6 8 20.48 12 13.28 7.84 26.24 15.040 37.6 21.28-6.4-17.28-11.040-38.080-13.44-68.16-2.88-35.2 11.68-80.8 30.56-98.72 8.32-7.84 18.368-8 24.64-8 22.080 0 32 18.24 43.040 40 13.6 26.56 25.6 57.44 25.6 57.44s-15.040-83.52 26.080-83.52c15.040 0 30.080 19.36 36.8 29.28v-0.16c0 0 0.32 0.64 1.12 1.92 1.6 2.4 2.4 3.84 2.4 3.84v0.48c6.080 10.4 19.36 34.24 39.36 73.6 25.92 50.88 50.688 114.4 50.688 114.4 2.4-13.952 5.728-27.744 9.92-41.28 4.48-15.2 13.92-31.84 21.44-48-6.080-8.32-9.76-13.12-9.76-13.12 0-0.128 0.064-0.224 0.16-0.32-4.8-6.4-10.24-13.28-15.84-20-20.448-24.32-44.8-52.16-48-60.16-3.84-9.44-2.88-16.48 4.48-21.92 5.44-4.16 15.040-4.8 25.12-4 18.4 1.28 31.36 5.76 37.6 8.64 11.52 4.128 22.368 9.824 32.32 16.96 20 14.72 32.16 35.84 31.040 63.68-0.64 15.36-5.6 30.72-11.68 45.12 1.76 2.56 3.68 5.28 5.44 8 31.648 46.24 56.16 96.992 56.16 96.992 2.4-13.952 5.696-27.744 9.92-41.28 3.84-12.96 11.36-27.2 18.24-41.12-29.76-24.16-48.16-52.16-54.528-70.56-11.84-34.080-2.56-49.44 14.88-52.96 7.84-1.6 19.040 2.080 27.36 5.6 12.352 4.128 24 10.112 34.528 17.76 20 14.72 39.36 35.36 38.048 63.36-0.48 12.64-4 25.28-8.64 37.44 25.12 10.56 57.76 16.32 99.36 11.52 89.088-10.4 106.528-66.080 103.168-89.28s-22.080-36.16-28.32-40c-6.24-3.84-8.16-5.28-7.68-8.16 0.8-4.16 3.68-4 8.96-3.040 7.36 1.28 46.72 18.88 48.48 61.92 2.56 54.4-49.76 114.24-142.4 113.76zM194.848 159.008c-29.44-32.16-70.688-44.32-88.448-34.080-19.040 11.072-11.52 58.4 24.768 92.672 22.080 20.8 50.56 40 69.44 51.84 4.32 2.56 10.56 6.4 18.24 11.040 1.28 0.8 1.92 1.12 1.92 1.12 1.44 0.96 3.040 1.76 4.64 2.72 13.248-48.64 0.48-91.52-30.56-125.28zM409.824 305.248c-10.24-25.12-31.808-89.12-44.96-85.76-11.2 2.88-18.080 51.68-2.24 99.68 8 24.16 24.96 52.96 35.040 64.16 16.16 18.080 33.92 23.84 38.080 16.64 5.6-9.44-19.52-79.040-25.92-94.72zM587.424 220.448c-4.32-2.24-8.32-3.68-10.24-2.56-1.44 0.8 1.76 3.84 1.76 3.84s22.24 23.84 31.040 34.72c5.12 6.4 11.040 13.92 17.44 22.24 0-0.8 0.16-1.6 0.16-2.56-0.192-28.64-27.712-48-40.192-55.68zM724.384 251.648c-3.2 2.24-2.72 9.76 8 33.12 4.16 9.12 13.76 24.48 30.4 39.2 1.888-5.568 2.912-11.392 3.040-17.28-0.16-36-25.92-49.44-41.44-55.040z" />
<glyph unicode="&#xe91d;" glyph-name="bs-resize-4" d="M404.080 385.52l-339.824-339.84v168.88c0 17.728-14.352 32.128-32.128 32.128-17.76 0-32.128-14.384-32.128-32.128v-246.432c0-4.176 0.848-8.336 2.48-12.272 3.248-7.872 9.504-14.112 17.376-17.392 3.92-1.616 8.096-2.464 12.272-2.464h246.448c17.744 0 32.128 14.368 32.128 32.128s-14.368 32.128-32.128 32.128h-168.896l339.808 339.84c12.544 12.544 12.544 32.88 0 45.424s-32.864 12.544-45.408 0zM1021.52 940.144c-3.248 7.856-9.504 14.112-17.376 17.392-3.92 1.616-8.096 2.464-12.272 2.464h-246.448c-17.744 0-32.128-14.368-32.128-32.128s14.368-32.128 32.128-32.128h168.896l-339.808-339.84c-12.544-12.544-12.544-32.88 0-45.424 6.272-6.272 14.496-9.424 22.72-9.424s16.432 3.152 22.704 9.424l339.808 339.84v-168.88c0-17.728 14.352-32.128 32.128-32.128 17.744 0 32.128 14.384 32.128 32.128v246.432c0 4.176-0.848 8.352-2.48 12.272z" />
<glyph unicode="&#xe91e;" glyph-name="bs-resize-3" d="M1024 860.296c0 5.879-2.268 11.071-6.786 15.598l-77.318 77.311c-4.518 4.527-9.705 6.784-15.588 6.784s-11.071-2.264-15.588-6.784l-225.167-225.144-97.631 97.65c-8.582 8.591-18.776 12.888-30.531 12.888-11.745 0-21.916-4.297-30.514-12.888-8.584-8.589-12.878-18.759-12.878-30.514v-303.803c0-11.762 4.294-21.93 12.878-30.524 8.598-8.586 18.767-12.883 30.514-12.883h303.803c11.755 0 21.947 4.297 30.531 12.883 8.582 8.591 12.89 18.759 12.89 30.524 0 11.753-4.306 21.926-12.89 30.514l-97.654 97.654 225.156 225.139c4.506 4.518 6.774 9.719 6.774 15.596zM468.595 447.979h-303.806c-11.753 0-21.926-4.297-30.514-12.888-8.591-8.582-12.888-18.767-12.888-30.514 0-11.753 4.297-21.928 12.888-30.514l97.65-97.652-225.139-225.139c-4.532-4.52-6.786-9.724-6.786-15.591 0-5.886 2.254-11.085 6.786-15.605l77.296-77.304c4.527-4.518 9.722-6.762 15.598-6.762s11.080 2.242 15.598 6.762l225.144 225.148 97.65-97.645c8.586-8.584 18.759-12.893 30.514-12.893 11.762 0 21.93 4.306 30.521 12.893 8.589 8.575 12.883 18.759 12.883 30.514v303.803c0 11.755-4.297 21.93-12.876 30.498-8.589 8.591-18.759 12.888-30.519 12.888z" />
<glyph unicode="&#xe91f;" glyph-name="bs-resize" d="M819.196 960h-614.402c-112.647 0-204.794-92.147-204.794-204.794v-614.402c0-112.647 92.147-204.804 204.794-204.804h614.392c112.657 0 204.804 92.157 204.804 204.804v614.402c0.010 112.647-92.138 204.794-204.794 204.794zM414.976 135.406l-64.55 64.55-135.899-135.957-86.527 86.498 135.928 135.85-64.55 64.55h215.551v-215.493h0.048zM414.87 545.024h-215.396l64.502 64.628-135.976 135.773 86.527 86.576 135.947-135.995 64.55 64.618-0.154-215.599zM511.99 354.105c-51.824 0-93.798 42.004-93.798 93.905 0 51.824 41.975 93.798 93.798 93.798 51.804 0 93.856-41.975 93.856-93.798 0-51.901-42.042-93.905-93.856-93.905zM809.502 64l-135.899 135.899-64.502-64.502v215.503h215.493l-64.502-64.55 135.85-135.85-86.441-86.498zM760.101 609.603l64.599-64.618-215.599 0.097v215.445l64.55-64.521 135.85 135.995 86.498-86.47-135.899-135.928z" />
<glyph unicode="&#xe920;" glyph-name="bs-refresh" d="M133.312 384h-133.312v-320l94.784 87.104c92.864-130.176 245.12-215.104 417.216-215.104 261.12 0 476.544 195.456 508.032 448h-129.344c-30.464-181.632-188.416-320-378.688-320-134.784 0-253.44 69.504-321.92 174.656l158.144 145.344h-214.912zM512 960c-261.12 0-476.544-195.456-508.032-448h129.344c30.464 181.632 188.416 320 378.688 320 138.816 0 260.48-73.664 327.936-184.064l-135.936-135.936h320v320l-91.648-91.648c-92.48 132.8-246.272 219.648-420.352 219.648z" />
<glyph unicode="&#xe921;" glyph-name="bs-radio-empty" d="M512 960c-282.624 0-512-229.376-512-512s229.376-512 512-512c282.624 0 512 229.376 512 512s-229.376 512-512 512zM512 38.4c-226.304 0-409.6 183.296-409.6 409.6s183.296 409.6 409.6 409.6c226.304 0 409.6-183.296 409.6-409.6s-183.296-409.6-409.6-409.6z" />
<glyph unicode="&#xe922;" glyph-name="bs-radio-button-2" d="M514.278 63.314c98.87 0.953 196.756 41.91 267.143 111.468 83.595 82.612 126.651 204.85 111.635 321.537-25.738 199.981-190.123 335.678-381.247 335.678-145.199 0-286.333-90.832-348.232-222.547-47.39-100.839-47.473-222.576 0-323.597 61.46-130.782 200.273-221.136 345.762-222.539 1.646-0.005 3.293-0.005 4.939 0zM509.75 127.373c-147.682 1.424-285.463 115.624-312.857 262.040-19.313 103.23 17.147 214.939 93.093 288.245 88.685 85.6 228.053 114.28 343.935 65.757 103.693-43.421 181.296-144.216 195.597-255.276 12.257-95.19-21.903-194.953-89.034-263.675-58.879-60.273-141.455-96.269-226.618-97.091-1.372-0.005-2.743-0.005-4.116 0zM783.237 448.008c0-149.878-121.5-271.377-271.377-271.377s-271.377 121.5-271.377 271.377c0 149.878 121.5 271.377 271.377 271.377s271.377-121.5 271.377-271.377z" />
<glyph unicode="&#xe923;" glyph-name="bs-radio-button" d="M896.649 447.679c0-212.265-172.075-384.341-384.341-384.341s-384.341 172.075-384.341 384.341c0 212.265 172.075 384.341 384.341 384.341s384.341-172.075 384.341-384.341z" />
<glyph unicode="&#xe924;" glyph-name="bs-question" d="M512 874.667c-235.641 0-426.667-191.025-426.667-426.667s191.025-426.667 426.667-426.667c235.641 0 426.667 191.025 426.667 426.667v0c0 235.641-191.025 426.667-426.667 426.667v0zM512 106.667c-188.513 0-341.333 152.82-341.333 341.333s152.82 341.333 341.333 341.333c188.513 0 341.333-152.82 341.333-341.333v0c0-188.513-152.82-341.333-341.333-341.333v0zM512 704c-82.475 0-149.333-66.859-149.333-149.333v0c0-23.564 19.103-42.667 42.667-42.667s42.667 19.103 42.667 42.667v0c0 35.346 28.654 64 64 64s64-28.654 64-64c0-35.346-28.654-64-64-64v0c-23.564 0-42.667-19.103-42.667-42.667v0-85.333c0-23.564 19.103-42.667 42.667-42.667s42.667 19.103 42.667 42.667v0 49.493c62.433 18.657 107.164 75.573 107.164 142.936 0 82.239-66.668 148.907-148.907 148.907-0.325 0-0.65-0.001-0.974-0.003h0.050zM554.667 234.667c0-23.564-19.103-42.667-42.667-42.667s-42.667 19.103-42.667 42.667c0 23.564 19.103 42.667 42.667 42.667s42.667-19.103 42.667-42.667z" />
<glyph unicode="&#xe925;" glyph-name="bs-qq" d="M912.864 318.496c-10.528 32.512-21.856 64.8-34.176 96.64l-46.176 115.040c0.16 1.312 0.64 23.808 0.64 35.68 0 196.48-92.8 394.144-321.152 394.144s-321.152-197.664-321.152-394.336c0-11.68 0.64-34.336 0.64-35.68l-46.176-114.976c-12.32-31.872-23.648-64-34.176-96.512-43.488-140.16-29.472-198.176-18.656-199.52 23.008-2.656 89.696 105.504 89.696 105.504 0-62.688 32.288-144.512 102.144-203.52-25.984-7.968-58.144-20.48-78.688-35.68-18.464-13.664-16.16-27.488-12.8-33.152 14.624-24.672 250.976-15.648 319.136-8.032 68.352-7.648 304.672-16.64 319.328 8.032 3.328 5.664 5.664 19.488-12.8 33.152-20.704 15.2-52.704 27.68-78.848 35.68 69.856 59.168 102.144 141.024 102.144 203.68 0 0 66.688-108.32 89.696-105.504 10.848 1.152 24.832 59.36-18.656 199.328zM540.16 753.152c1.664 45.024 28.16 80.16 59.168 78.848 30.976-1.312 54.656-38.816 52.992-83.84-1.664-44.832-28.16-80.16-59.168-78.688-30.816 1.376-54.656 38.88-52.992 83.68zM424.672 832c31.008 1.312 57.504-33.824 59.168-78.848 1.664-44.8-22.176-82.304-52.992-83.68-31.008-1.504-57.504 33.824-59.168 78.688-1.664 45.024 22.016 82.528 52.992 83.84zM316.672 606.176c8.16 18.336 91.488 38.656 194.816 38.656h1.024c103.168 0 186.656-20.32 194.816-38.656 0.512-0.8 0.672-1.664 0.672-2.656 0-1.376-0.512-2.528-1.184-3.552-7.008-10.144-99.488-60.448-194.144-60.448h-1.184c-94.816 0-187.296 50.304-194.304 60.448-1.376 1.696-1.536 4.192-0.512 6.176zM761.344 238.336c-9.504-157.024-102.528-255.488-246.368-257.024h-5.792c-143.872 1.536-237.024 100-246.368 257.024-3.488 57.504 0 106.336 6.176 146.336 13.664-2.848 27.296-5.344 40.992-7.52v-149.664c0 0 70.656-14.336 141.472-4.352v137.504c20.832-1.152 40.992-1.664 60-1.312h1.024c71.648-1.024 158.496 8.672 242.464 25.344 6.368-40.032 9.696-88.832 6.368-146.336zM447.136 712.32c13.344 1.824 23.168 17.504 21.664 35.2-1.504 17.824-13.312 30.816-26.848 28.96-13.312-1.664-23.168-17.504-21.632-35.168 1.504-17.664 13.312-30.688 26.784-29.024zM617.824 740c3.36-1.504 9.344-1.824 12.384 6.144 1.504 4.192 0.992 7.168-0.512 9.184-1.024 1.504-5.664 4.992-15.84 7.52-38.528 9.504-57.184-16.352-59.872-21.152-1.824-3.168-0.48-7.68 2.336-9.856 2.816-2.144 6.016-1.504 7.68 0.352 24.672 26.848 51.68 8.832 53.792 7.84z" />
<glyph unicode="&#xe926;" glyph-name="bs-punto-net" d="M85.333 320c23.564 0 42.667-19.103 42.667-42.667v0c0-23.564-19.103-42.667-42.667-42.667v0c-23.564 0-42.667 19.103-42.667 42.667v0c0 23.564 19.103 42.667 42.667 42.667v0zM896 234.667h-85.333v341.333h-85.333v85.333h256v-85.333h-85.333v-341.333zM682.667 661.333v-85.333h-85.333v-85.333h85.333v-85.333h-85.333v-85.333h85.333v-85.333h-170.667v426.667h170.667zM469.333 661.333v-426.667h-85.333l-128 256v-256h-85.333v426.667h85.333l128-256v256h85.333z" />
<glyph unicode="&#xe927;" glyph-name="bs-power-on" d="M716.8 845.722v-158.788c82.944-62.259 136.533-161.382 136.533-273.067 0-188.553-152.781-341.333-341.333-341.333s-341.333 152.781-341.333 341.333c0 111.684 53.589 210.807 136.533 273.067v158.788c-161.451-76.663-273.067-241.254-273.067-431.855 0-263.919 213.948-477.867 477.867-477.867s477.867 213.948 477.867 477.867c0 190.601-111.616 355.191-273.067 431.855zM580.267 481.929v410.010c0 37.615-30.31 68.062-68.267 68.062-37.751 0-68.267-30.925-68.267-68.062v-410.010c0-37.615 30.31-68.062 68.267-68.062 37.751 0 68.267 30.925 68.267 68.062z" />
<glyph unicode="&#xe928;" glyph-name="bs-power-off" d="M512.005 408.613c21.336 0 39.806 7.779 55.385 23.382 15.584 15.581 23.395 34.053 23.395 55.381v393.85c0 21.338-7.803 39.797-23.395 55.379-15.577 15.599-34.049 23.395-55.385 23.395-21.338 0-39.797-7.805-55.387-23.395-15.59-15.581-23.386-34.049-23.386-55.379v-393.853c0-21.328 7.796-39.797 23.386-55.381 15.59-15.601 34.055-23.38 55.387-23.38zM935.092 619.69c-33.032 66.046-79.487 121.433-139.381 166.147-17.23 13.126-36.717 18.256-58.461 15.387-21.746-2.873-38.976-13.129-51.693-30.764-13.129-17.228-18.144-36.612-15.075-58.151 3.067-21.55 13.232-38.877 30.462-52.006 40.188-30.357 71.284-67.49 93.221-111.387 21.951-43.893 32.913-90.667 32.913-140.297 0-42.679-8.307-83.388-24.919-122.164-16.61-38.769-39.077-72.301-67.389-100.612-28.311-28.303-61.834-50.762-100.61-67.38-38.769-16.618-79.487-24.938-122.153-24.938-42.66 0-83.38 8.32-122.149 24.938-38.774 16.618-72.307 39.077-100.619 67.38-28.298 28.311-50.762 61.841-67.38 100.612-16.614 38.776-24.923 79.485-24.923 122.164 0 49.63 10.975 96.398 32.922 140.297 21.948 43.893 53.025 81.024 93.228 111.387 17.23 13.137 27.38 30.462 30.462 52.006 3.076 21.53-1.946 40.922-15.077 58.151-12.719 17.636-29.839 27.893-51.383 30.764-21.541 2.871-41.136-2.261-58.774-15.387-59.903-44.714-106.356-100.101-139.388-166.147-33.029-66.055-49.538-136.411-49.538-211.072 0-64.009 12.514-125.13 37.536-183.386 25.031-58.256 58.666-108.503 100.929-150.766 42.25-42.252 92.508-75.903 150.768-100.905 58.256-25.035 119.384-37.56 183.382-37.56 64 0 125.125 12.525 183.384 37.56 58.263 25.011 108.518 58.655 150.775 100.905 42.25 42.25 75.885 92.51 100.912 150.766s37.53 119.392 37.53 183.386c0.002 74.663-16.485 145.020-49.514 211.072z" />
<glyph unicode="&#xe929;" glyph-name="bs-plus" d="M1003.637 567.27c-13.58 13.577-30.073 20.363-49.461 20.363h-302.548v302.556c0 19.388-6.791 35.876-20.363 49.453-13.575 13.567-30.051 20.358-49.466 20.358h-139.623c-19.39 0-35.876-6.783-49.453-20.361s-20.363-30.066-20.363-49.453v-302.556h-302.546c-19.388 0-35.876-6.786-49.453-20.363s-20.361-30.051-20.361-49.451v-139.641c0-19.405 6.781-35.881 20.358-49.446 13.577-13.582 30.066-20.363 49.453-20.363h302.546v-302.561c0-19.388 6.786-35.889 20.363-49.461 13.577-13.564 30.063-20.345 49.453-20.345h139.633c19.403 0 35.881 6.781 49.461 20.345 13.582 13.58 20.363 30.073 20.363 49.461v302.561h302.543c19.405 0 35.889 6.781 49.461 20.363 13.575 13.564 20.363 30.040 20.363 49.446v139.641c-0.005 19.4-6.778 35.884-20.361 49.453z" />
<glyph unicode="&#xe92a;" glyph-name="bs-pinterest-2" d="M767.187 960h-511.187c-140.597 0-256-115.403-256-256.813v-511.187c0-140.597 115.403-256 256-256h511.187c141.41 0 256.813 115.403 256.813 256.813v510.375c0 141.41-115.403 256.813-256.813 256.813zM563.2 305.778c-40.635 0-79.644 21.13-92.648 45.511 0 0-21.943-84.521-26.819-100.775-16.254-57.702-65.016-115.403-68.267-120.279-2.438-3.251-8.127-2.438-8.94 2.438-0.813 7.314-13.003 80.457 0.813 139.784 7.314 30.070 48.762 199.924 48.762 199.924s-12.19 23.568-12.19 57.702c0 54.451 32.508 95.086 73.143 95.086 34.133 0 51.2-25.194 51.2-55.263 0-33.321-21.943-83.708-33.321-130.032-9.752-39.010 20.317-70.705 60.14-70.705 71.517 0 120.279 89.397 120.279 195.048 0 80.457-56.076 140.597-157.663 140.597-114.59 0-186.921-82.895-186.921-175.543 0-31.695 9.752-54.451 25.194-72.33 7.314-8.127 8.127-11.378 5.689-20.317-1.625-6.502-5.689-22.756-8.127-29.257-2.438-8.94-10.565-13.003-18.692-8.94-52.825 21.13-77.206 77.206-77.206 140.597 0 104.025 91.022 229.181 270.629 229.181 144.66 0 239.746-101.587 239.746-210.489-0.813-144.66-82.895-251.937-204.8-251.937z" />
<glyph unicode="&#xe92b;" glyph-name="bs-pinterest" d="M525.909 960c-280.704-0.043-429.909-179.883-429.909-375.979 0-90.923 50.816-204.373 132.181-240.341 23.211-10.453 20.139 2.304 40.107 78.677 1.579 6.357 0.768 11.861-4.352 17.792-116.309 134.528-22.699 411.093 245.376 411.093 387.968 0 315.477-536.832 67.499-536.832-63.915 0-111.531 50.176-96.469 112.256 18.261 73.941 54.016 153.429 54.016 206.72 0 134.315-200.107 114.389-200.107-63.573 0-54.997 19.456-92.117 19.456-92.117s-64.384-260.096-76.331-308.693c-20.224-82.261 2.731-215.424 4.736-226.901 1.237-6.315 8.32-8.32 12.288-3.115 6.357 8.32 84.181 119.339 105.984 199.595 7.936 29.227 40.491 147.84 40.491 147.84 21.461-38.741 83.328-71.168 149.248-71.168 196.096 0 337.835 172.373 337.835 386.261-0.683 205.056-176.171 358.485-402.048 358.485z" />
<glyph unicode="&#xe92c;" glyph-name="bs-picture" d="M981.333 874.667h-938.667c-23.564 0-42.667-19.103-42.667-42.667v0-768c0-23.564 19.103-42.667 42.667-42.667v0h938.667c23.564 0 42.667 19.103 42.667 42.667v0 768c0 23.564-19.103 42.667-42.667 42.667v0zM938.667 106.667h-85.333v42.667h-213.333v-42.667h-554.667v682.667h853.333v-682.667zM439.040 545.707c0 40.295 32.665 72.96 72.96 72.96v0c40.533 0 72.96-32.853 72.96-72.96 0-40.533-32.427-73.387-72.96-73.387s-72.96 32.853-72.96 73.387zM243.627 478.293c0 30.293 24.747 55.040 55.040 55.040 30.398 0 55.040-24.642 55.040-55.040v0c0-30.293-24.747-54.613-55.040-54.613s-55.040 24.32-55.040 54.613zM670.293 478.293c0 30.398 24.642 55.040 55.040 55.040v0c30.398 0 55.040-24.642 55.040-55.040v0c0-30.293-24.747-54.613-55.040-54.613s-55.040 24.32-55.040 54.613zM853.333 314.027v-36.693h-682.667v36.693c0 40.107 66.133 72.96 128 72.96 23.467 0 47.36-4.693 68.267-12.8 32 29.44 89.6 49.493 145.067 49.493s113.067-20.053 145.067-49.493c20.907 8.107 44.8 12.8 68.267 12.8 61.867 0 128-32.853 128-72.96z" />
<glyph unicode="&#xe92d;" glyph-name="bs-phonecall" d="M554.667 618.667c70.692 0 128-57.308 128-128v0c0-23.564 19.103-42.667 42.667-42.667s42.667 19.103 42.667 42.667v0c0 117.821-95.513 213.333-213.333 213.333v0c-23.564 0-42.667-19.103-42.667-42.667s19.103-42.667 42.667-42.667v0zM554.667 789.333c164.949 0 298.667-133.718 298.667-298.667v0c0-23.564 19.103-42.667 42.667-42.667s42.667 19.103 42.667 42.667v0c0 212.077-171.923 384-384 384v0c-23.564 0-42.667-19.103-42.667-42.667s19.103-42.667 42.667-42.667v0zM928 281.173c-4.851 13.866-16.271 24.299-30.43 27.675l-0.29 0.058-256 58.453c-2.835 0.671-6.090 1.056-9.435 1.056-11.608 0-22.134-4.636-29.827-12.157l0.008 0.008c-5.973-5.547-6.4-5.973-34.133-58.88-92.36 43.256-164.888 116.060-206.699 206.032l-1.088 2.608c54.187 27.307 54.613 27.307 60.16 33.707 7.514 7.685 12.15 18.21 12.15 29.819 0 3.345-0.385 6.6-1.113 9.723l0.057-0.288-58.453 253.013c-3.435 14.449-13.868 25.869-27.434 30.629l-0.299 0.091c-8.775 3.259-19.126 5.937-29.822 7.567l-0.898 0.113c-9.73 2.361-21.014 3.896-32.592 4.26l-0.261 0.006c-108.395 0-196.267-87.872-196.267-196.267v0c0.485-362.693 294.375-656.582 657.021-657.067h0.046c108.395 0 196.267 87.872 196.267 196.267v0c0 0.073 0 0.16 0 0.247 0 11.362-0.931 22.507-2.721 33.361l0.161-1.182c-2.040 11.899-4.854 22.37-8.516 32.434l0.41-1.288z" />
<glyph unicode="&#xe92e;" glyph-name="bs-person" d="M512 490.667c94.257 0 170.667 76.41 170.667 170.667s-76.41 170.667-170.667 170.667c-94.257 0-170.667-76.41-170.667-170.667v0c0-94.257 76.41-170.667 170.667-170.667v0zM768 64c23.564 0 42.667 19.103 42.667 42.667v0c0 164.949-133.718 298.667-298.667 298.667s-298.667-133.718-298.667-298.667v0c0-23.564 19.103-42.667 42.667-42.667v0z" />
<glyph unicode="&#xe92f;" glyph-name="bs-padlock" d="M173.533 423.768c0 50.809 41.429 92.238 92.238 92.238h443.994c50.809 0 92.238-41.429 92.238-92.238v-329.869c0-50.809-41.429-92.238-92.238-92.238h-443.212c-50.809 0-92.238 41.429-92.238 92.238v329.869h-0.782zM545.612 105.624l-31.267 164.153c28.14 10.162 47.682 37.521 47.682 68.788 0 40.647-32.831 73.478-73.478 73.478s-73.478-32.831-73.478-73.478c0-31.267 20.324-58.626 47.682-68.788l-31.267-164.153h114.125zM488.55 775.524c-69.569 0-125.85-56.281-125.85-125.85v-98.492h-63.316v98.492c0 104.745 84.421 189.166 189.166 189.166s189.166-84.421 189.166-189.166v-98.492h-63.316v98.492c-0.782 69.569-57.063 125.85-125.85 125.85v0z" />
<glyph unicode="&#xe930;" glyph-name="bs-opera" d="M827.529 821.931c-82.261 97.485-189.269 143.428-320.99 137.557-121.856 5.871-224.802-40.107-308.258-138.069-83.524-97.826-125.269-220.023-125.269-366.421 0-130.458 32.119-243.61 96.256-338.466 81.476-120.183 196.403-180.531 345.122-180.531 148.412 0 263.27 63.147 344.542 189.269 61.406 95.266 92.058 205.346 92.058 330.411 0 146.842-41.199 268.868-123.46 366.251zM700.723 175.548c-19.934-68.13-47.718-117.794-83.456-148.924-27.989-24.132-62.942-36.215-104.585-36.215-62.123 0-110.387 28.126-144.93 84.207-49.459 80.657-74.274 205.278-74.274 373.931 0 141.653 16.145 250.163 48.196 326.007 39.253 92.194 96.597 138.274 172.203 138.274 40.926 0 77.346-13.312 108.612-40.004 31.403-26.385 57.412-72.26 77.653-137.318 20.275-64.717 30.481-162.167 30.481-292.864-0.102-109.841-10.035-198.827-29.901-267.093z" />
<glyph unicode="&#xe931;" glyph-name="bs-ok-2" d="M512-64c282.32 0 512 229.68 512 512s-229.68 512-512 512-512-229.68-512-512 229.68-512 512-512zM312.608 475.696l111.264-109.904 264.768 326.688 81.472-71.856-337.648-416.576-193.216 190.8 73.36 80.848z" />
<glyph unicode="&#xe932;" glyph-name="bs-ok" d="M304.232 401.994c0 0 202.574 342.817 303.49 473.414h227.061c-250.064-279.745-520.162-742.029-545.391-795.455 0 0-172.893 291.617-202.574 333.913l104.626 172.893c59.362-89.043 110.562-172.893 113.53-181.797v-2.968h-0.742z" />
<glyph unicode="&#xe933;" glyph-name="bs-npm-2" d="M768 832h-512c-70.692 0-128-57.308-128-128v0-512c0-70.692 57.308-128 128-128v0h298.667v426.667h170.667v-426.667h42.667c70.692 0 128 57.308 128 128v0 512c0 70.692-57.308 128-128 128v0z" />
<glyph unicode="&#xe934;" glyph-name="bs-npm" d="M510.046 422.595h-52.763v113.344h52.763v-113.344zM626.321 365.924h114.321v170.015h55.695v-170.015l56.672-1.954v171.969h59.603v-170.015h56.672v226.687h-342.962v-226.687zM341.008 309.252h116.275v55.695h111.389v113.344l1.954 114.321h-229.618v-283.359zM55.695 364.947h117.252v170.992h54.718v-170.015h58.626v226.687h-230.595v-227.664zM1024 309.252h-509.069v-59.603h-228.641v58.626h-286.29v341.008h1024v-340.031z" />
<glyph unicode="&#xe935;" glyph-name="bs-notif" d="M273.067 857.6l-68.267 68.267c-117.029-87.771-195.048-224.305-204.8-380.343h97.524c9.752 131.657 73.143 243.81 175.543 312.076zM926.476 545.524h97.524c-9.752 156.038-82.895 292.571-199.924 380.343l-68.267-68.267c97.524-68.267 160.914-180.419 170.667-312.076zM828.952 521.143c0 151.162-102.4 273.067-243.81 307.2v34.133c0 39.010-34.133 73.143-73.143 73.143s-73.143-34.133-73.143-73.143v-34.133c-141.41-34.133-243.81-156.038-243.81-307.2v-268.19l-97.524-97.524v-48.762h828.952v48.762l-97.524 97.524v268.19zM512-39.619c4.876 0 14.629 0 19.505 0 34.133 4.876 58.514 29.257 68.267 58.514 4.876 9.754 9.752 24.381 9.752 39.010h-195.048c0-53.638 43.886-97.524 97.524-97.524z" />
<glyph unicode="&#xe936;" glyph-name="bs-no-sound" d="M760.242-64h-124.12l-248.243 310.304h-124.12v372.363h124.12l248.243 341.332h124.12z" />
<glyph unicode="&#xe937;" glyph-name="bs-no-notif" d="M486.4-64c56.32 0 102.4 46.080 102.4 102.4h-204.8c0-56.32 46.080-102.4 102.4-102.4zM819.2 524.8c0 158.72-107.52 286.72-256 322.56v35.84c0 40.96-35.84 76.8-76.8 76.8s-76.8-35.84-76.8-76.8v-35.84c-25.6-5.12-51.2-15.36-71.68-25.6l481.28-481.28v184.32zM803.84 89.6l102.4-102.4 66.56 66.56-855.040 855.040-66.56-66.56 148.48-148.48c-30.72-51.2-46.080-107.52-46.080-168.96v-281.6l-102.4-102.4v-51.2h752.64z" />
<glyph unicode="&#xe938;" glyph-name="bs-node" d="M512 881.067c-11.52 0-23.467-2.987-33.28-8.533l-317.44-183.467c-20.48-11.947-33.28-34.133-33.28-58.027v-366.080c0-23.893 12.8-46.080 33.28-58.027l83.2-47.787c40.533-19.627 54.187-20.053 72.96-20.053 59.733 0 94.293 36.267 94.293 99.413v361.387c0 5.12-4.267 9.387-9.387 9.387h-39.68c-5.547 0-9.813-4.267-9.813-9.387v-361.387c0-28.16-29.013-55.893-75.52-32.427l-87.467 49.92c-2.987 2.133-4.693 5.547-4.693 8.96v366.080c0 3.84 1.707 7.253 4.693 8.96l317.44 183.040c2.56 1.707 6.827 1.707 9.387 0l317.44-183.040c2.987-1.707 4.693-5.12 4.693-8.96v-366.080c0-3.413-1.707-6.827-4.693-8.96l-317.44-183.040c-2.56-1.707-6.827-1.707-9.813 0l-80.213 48.64c-3.413 1.28-6.827 1.707-8.96 0.427-22.613-12.8-26.88-15.36-47.787-21.76-5.12-1.707-13.227-4.693 2.987-13.653l105.813-62.72c10.24-5.973 21.333-8.96 33.28-8.96s23.040 2.987 33.28 8.96l317.44 183.040c20.48 11.947 33.28 34.133 33.28 58.027v366.080c0 23.893-12.8 46.080-33.28 58.027l-317.44 183.467c-9.813 5.547-21.333 8.533-33.28 8.533zM597.333 618.667c-90.453 0-144.64-37.973-144.64-101.973 0-68.693 53.76-88.747 140.8-97.28 103.68-10.24 111.787-25.6 111.787-46.080 0-35.413-28.587-50.347-95.147-50.347-84.48 0-102.4 20.907-108.8 62.72-0.853 4.267-4.693 7.68-9.387 7.68h-40.96c-5.12 0-8.96-3.84-8.96-9.387 0-52.907 29.013-116.907 168.107-116.907 100.267 0 157.867 39.68 157.867 108.8 0 68.693-46.080 86.613-143.787 99.84-98.56 12.8-108.373 19.627-108.373 42.667 0 19.2 8.533 44.8 81.493 44.8 64 0 89.173-14.080 98.987-58.027 0.853-4.267 4.693-7.253 8.96-7.253h41.387c2.133 0 4.693 0.853 6.4 2.987 1.707 1.707 2.987 4.267 2.133 6.827-5.973 75.947-56.32 110.933-157.867 110.933z" />
<glyph unicode="&#xe939;" glyph-name="bs-netflix" d="M872.042 562.22c0-3.218 4.299-27.941 9.315-54.448l9.315-48.369-9.315-57.673c-5.374-31.89-9.315-59.831-9.315-61.981 0-2.853 4.657-4.681 11.822-4.681h11.822l4.657 39.051c2.508 21.497 5.732 43.71 7.165 49.437l2.866 10.035 2.15-8.96c1.074-5.047 3.941-27.582 6.448-50.512l4.299-41.911 12.539-2.121c7.165-1.097 13.255-1.463 13.613-1.097 0.717 0-3.583 29.733-8.956 64.841l-9.673 63.766 9.673 50.512c5.732 27.948 10.031 53.021 10.389 55.53 0 2.487-4.657 4.315-12.181 4.315-13.972 0-13.613 1.097-20.42-49.079-2.508-18.271-5.732-33.317-7.165-33.317s-4.657 11.82-6.807 26.149c-2.507 13.978-5.374 32.249-6.807 40.126-2.15 12.895-3.583 14.329-13.972 15.404-8.956 1.097-11.464 0-11.464-5.047zM768.149 457.253v-111.411h21.495l-0.717 110.343-1.074 109.978-9.673 1.097-10.031 1.097v-111.060zM645.269 565.804c-1.433-1.463-2.508-49.796-2.508-107.118v-104.609l11.106-2.487c6.090-1.097 18.271-2.121 26.869-2.121 15.047 0 15.763 0 15.763 10.386 0 10.028-1.074 10.745-15.047 11.82l-15.405 1.097-0.717 96.731-0.717 96.724-8.598 1.097c-4.299 0.731-9.315 0-10.748-1.463zM513.791 565.804c0-1.097 0-49.079-0.358-106.401v-104.967l11.106-1.097 10.747-1.097v89.563l15.405 1.097c13.613 1.097 15.047 2.121 16.121 11.11 1.074 9.311 0.717 9.669-15.047 9.669h-16.48v78.46l15.405 1.097c13.972 1.097 15.047 1.755 15.047 11.827v10.745l-25.794 1.097c-14.33 0.731-26.152 0-26.152-1.097zM365.834 565.804c-1.433-1.463-2.508-7.168-2.508-12.895 0-8.953 1.074-10.035 12.539-10.035h12.539v-94.215c0-51.946 0.717-95.298 1.791-96.373 1.074-0.731 6.448-1.097 12.539 0l10.748 1.463v189.155h12.897c12.18 0 12.539 0 11.464 11.827l-1.074 11.461-34.034 1.097c-18.987 0-35.467 0-36.9-1.463zM248.686 454.751c0-101.749 0.717-113.211 5.732-111.060 3.224 1.097 15.047 2.121 26.869 2.121 21.137 0 21.137 0 21.137 10.745 0 10.394-0.717 10.745-16.121 10.745h-16.121v75.235h16.121c15.405 0 16.121 0 16.121 10.752 0 10.386-0.717 10.745-16.121 10.745h-16.121v78.46l15.405 1.097c13.972 1.097 15.047 1.755 15.047 11.827v10.745l-51.946 2.194v-113.562zM75.651 565.445c-1.433-1.097-2.508-55.172-2.508-120.013v-117.862l11.464 1.097 11.822 1.097-1.433 81.679c-0.717 58.397 0 81.32 2.866 81.32 2.15 0 3.941-1.097 3.941-2.487 0-4.315 21.137-141.502 23.286-149.745 1.433-6.437 3.941-7.168 21.495-6.071l19.704 1.463v232.507l-11.106-1.097-10.748-1.097 0.358-86.696c0-57.68-1.074-87.055-3.583-87.055-1.791 0-3.583 1.097-3.583 2.121 0 7.526-25.436 167.658-27.227 170.167-2.15 3.584-31.168 4.315-34.75 0.731z" />
<glyph unicode="&#xe93a;" glyph-name="bs-mute" d="M622.4 828.48c-3.962 1.891-8.612 2.996-13.519 2.996-6.927 0-13.34-2.201-18.578-5.942l0.097 0.066-248.96-185.6h-245.44c-17.673 0-32-14.327-32-32v0-320c0-17.673 14.327-32 32-32v0h245.44l247.36-185.6c5.281-3.996 11.96-6.4 19.2-6.4 17.673 0 32 14.327 32 32v0 704c-0.039 12.384-7.106 23.108-17.42 28.396l-0.18 0.084zM877.12 448l73.28 73.28c4.783 5.559 7.695 12.847 7.695 20.815 0 17.673-14.327 32-32 32-7.968 0-15.255-2.912-20.857-7.73l0.042 0.035-73.28-73.28-73.28 73.28c-5.559 4.783-12.847 7.695-20.815 7.695-17.673 0-32-14.327-32-32 0-7.968 2.912-15.255 7.73-20.857l-0.035 0.042 73.28-73.28-73.28-73.28c-6.865-5.904-11.185-14.6-11.185-24.305 0-17.673 14.327-32 32-32 9.705 0 18.401 4.321 24.27 11.143l0.035 0.042 73.28 73.28 73.28-73.28c5.559-4.783 12.847-7.695 20.815-7.695 17.673 0 32 14.327 32 32 0 7.968-2.912 15.255-7.73 20.857l0.035-0.042z" />
<glyph unicode="&#xe93b;" glyph-name="bs-minus" d="M853.333 362.667h-682.667v170.667h682.667z" />
<glyph unicode="&#xe93c;" glyph-name="bs-mic-off" d="M664.747 416c11.084 21.756 17.677 47.414 17.919 74.587l0.001 0.079v213.333c-1.079 93.432-77.071 168.757-170.656 168.757-82.254 0-150.918-58.189-167.071-135.649l-0.193-1.108zM810.667 490.667c0 23.564-19.103 42.667-42.667 42.667s-42.667-19.103-42.667-42.667v0c-0.134-39.089-11.063-75.597-29.959-106.735l0.519 0.921 62.72-64.853c32.592 47.153 52.061 105.546 52.061 168.486 0 0.767-0.003 1.533-0.009 2.298l0.001-0.118zM512 320h6.827l-177.493 177.92v-7.253c0-94.257 76.41-170.667 170.667-170.667v0zM883.627 136.96l-682.667 682.667c-7.753 7.753-18.463 12.548-30.293 12.548-23.661 0-42.841-19.181-42.841-42.841 0-11.83 4.795-22.541 12.548-30.293v0l682.667-682.667c7.733-7.795 18.45-12.621 30.293-12.621s22.56 4.826 30.291 12.618l0.003 0.003c7.795 7.733 12.621 18.45 12.621 30.293s-4.826 22.56-12.618 30.291l-0.003 0.003zM640 106.667h-85.333v88.747c26.3 3.731 50.025 10.296 72.388 19.497l-1.988-0.724-68.267 68.267c-13.336-3.254-28.646-5.12-44.392-5.12-0.144 0-0.287 0-0.431 0h0.022c-117.821 0-213.333 95.513-213.333 213.333v0c0 23.564-19.103 42.667-42.667 42.667s-42.667-19.103-42.667-42.667v0c0.181-149.75 110.544-273.669 254.367-295.054l1.633-0.2v-88.747h-85.333c-23.564 0-42.667-19.103-42.667-42.667s19.103-42.667 42.667-42.667v0h256c23.564 0 42.667 19.103 42.667 42.667s-19.103 42.667-42.667 42.667v0z" />
<glyph unicode="&#xe93d;" glyph-name="bs-mic" d="M521.494 346.278c-60.355 0-109.181 49.505-109.181 109.86v246.845c0 61.033 48.826 109.86 109.181 109.86s109.181-49.505 109.181-109.86v-246.167c0-61.033-48.826-110.538-109.181-110.538v0zM670.008 525.987h73.24v-93.584c0-104.434-82.056-190.559-185.134-196.662v-76.63h109.86v-73.24h-292.959v73.24h109.86v76.63c-103.078 6.103-185.134 92.228-185.134 196.662v93.584h73.24v-93.584c0-68.493 55.608-123.423 123.423-123.423h49.505c68.493 0 123.423 55.608 123.423 123.423v93.584h0.678z" />
<glyph unicode="&#xe93e;" glyph-name="bs-menu-points-2" d="M512 704c70.4 0 128 57.6 128 128s-57.6 128-128 128-128-57.6-128-128 57.6-128 128-128zM512 576c-70.4 0-128-57.6-128-128s57.6-128 128-128 128 57.6 128 128-57.6 128-128 128zM512 192c-70.4 0-128-57.6-128-128s57.6-128 128-128 128 57.6 128 128-57.6 128-128 128z" />
<glyph unicode="&#xe93f;" glyph-name="bs-menu-points" d="M93.090 541.090c-51.416 0-93.090-41.673-93.090-93.090s41.674-93.090 93.090-93.090 93.092 41.673 93.092 93.090c0 51.418-41.674 93.090-93.092 93.090zM527.516 541.090c-51.418 0-93.090-41.674-93.090-93.090s41.674-93.090 93.090-93.090c51.416 0 93.090 41.671 93.090 93.090s-41.673 93.090-93.090 93.090zM930.91 541.090c-51.418 0-93.090-41.674-93.090-93.090s41.673-93.090 93.090-93.090c51.416 0 93.090 41.673 93.090 93.090s-41.674 93.090-93.090 93.090z" />
<glyph unicode="&#xe940;" glyph-name="bs-menu-line-4" d="M128 640h768c70.688 0 128 57.312 128 128s-57.312 128-128 128h-768c-70.688 0-128-57.312-128-128s57.312-128 128-128zM896 576h-768c-70.688 0-128-57.312-128-128s57.312-128 128-128h768c70.688 0 128 57.312 128 128s-57.312 128-128 128zM896 256h-768c-70.688 0-128-57.312-128-128s57.312-128 128-128h768c70.688 0 128 57.312 128 128s-57.312 128-128 128z" />
<glyph unicode="&#xe941;" glyph-name="bs-menu-line-3" d="M102.4 755.2h819.2c56.524 0 102.4 45.824 102.4 102.4s-45.824 102.4-102.4 102.4h-819.2c-56.576 0-102.4-45.824-102.4-102.4s45.824-102.4 102.4-102.4zM921.6 550.4h-819.2c-56.576 0-102.4-45.824-102.4-102.4 0-56.574 45.824-102.4 102.4-102.4h819.2c56.524 0 102.4 45.826 102.4 102.4 0 56.576-45.824 102.4-102.4 102.4zM921.6 140.8h-819.2c-56.576 0-102.4-45.824-102.4-102.4s45.824-102.4 102.4-102.4h819.2c56.524 0 102.4 45.824 102.4 102.4s-45.824 102.4-102.4 102.4z" />
<glyph unicode="&#xe942;" glyph-name="bs-menu-line-2" d="M0 106.667h1024v113.778h-1024v-113.778zM0 391.111h1024v113.778h-1024v-113.778zM0 789.333v-113.778h1024v113.778h-1024z" />
<glyph unicode="&#xe943;" glyph-name="bs-menu-line-1" d="M102.4 755.2h819.2c56.524 0 102.4 45.824 102.4 102.4s-45.824 102.4-102.4 102.4h-819.2c-56.576 0-102.4-45.824-102.4-102.4s45.824-102.4 102.4-102.4zM921.6 550.4h-819.2c-56.576 0-102.4-45.824-102.4-102.4 0-56.574 45.824-102.4 102.4-102.4h819.2c56.524 0 102.4 45.826 102.4 102.4 0 56.576-45.824 102.4-102.4 102.4zM921.6 140.8h-819.2c-56.576 0-102.4-45.824-102.4-102.4s45.824-102.4 102.4-102.4h819.2c56.524 0 102.4 45.824 102.4 102.4s-45.824 102.4-102.4 102.4z" />
<glyph unicode="&#xe944;" glyph-name="bs-location" d="M512 874.667c-165.12 0-298.667-133.547-298.667-298.667 0-224 298.667-554.667 298.667-554.667s298.667 330.667 298.667 554.667c0 165.12-133.547 298.667-298.667 298.667zM512 469.333c-58.88 0-106.667 47.787-106.667 106.667s47.787 106.667 106.667 106.667 106.667-47.787 106.667-106.667-47.787-106.667-106.667-106.667z" />
<glyph unicode="&#xe945;" glyph-name="bs-list2" d="M910.222 960h-796.444c-62.578 0-113.778-51.2-113.778-113.778v-796.444c0-62.578 51.2-113.778 113.778-113.778h796.444c62.578 0 113.778 51.2 113.778 113.778v796.444c0 62.578-51.2 113.778-113.778 113.778zM341.333 163.556h-113.778v113.778h113.778v-113.778zM341.333 391.111h-113.778v113.778h113.778v-113.778zM341.333 618.667h-113.778v113.778h113.778v-113.778zM796.444 163.556h-398.222v113.778h398.222v-113.778zM796.444 391.111h-398.222v113.778h398.222v-113.778zM796.444 618.667h-398.222v113.778h398.222v-113.778z" />
<glyph unicode="&#xe946;" glyph-name="bs-list" d="M99.097 811.354c-54.735 0-99.097-44.362-99.097-99.095s44.362-99.097 99.097-99.097 99.097 44.363 99.097 99.097-44.363 99.095-99.097 99.095zM99.097 547.097c-54.735 0-99.097-44.363-99.097-99.097 0-54.735 44.362-99.097 99.097-99.097s99.097 44.362 99.097 99.097c0 54.734-44.363 99.097-99.097 99.097zM99.097 282.838c-54.735 0-99.097-44.362-99.097-99.097s44.362-99.097 99.097-99.097 99.097 44.363 99.097 99.097c0 54.735-44.363 99.097-99.097 99.097zM330.322 646.194h627.612c36.501 0 66.065 29.564 66.065 66.065s-29.564 66.065-66.065 66.065h-627.612c-36.501 0-66.065-29.564-66.065-66.065s29.564-66.065 66.065-66.065zM957.935 514.065h-627.613c-36.501 0-66.065-29.564-66.065-66.065 0-36.499 29.564-66.065 66.065-66.065h627.612c36.501 0 66.065 29.565 66.065 66.065 0.002 36.501-29.562 66.065-66.063 66.065zM957.935 249.807h-627.613c-36.501 0-66.065-29.565-66.065-66.065s29.564-66.063 66.065-66.063h627.612c36.501 0 66.065 29.564 66.065 66.063s-29.562 66.065-66.063 66.065z" />
<glyph unicode="&#xe947;" glyph-name="bs-linux" d="M853.982 247.398c22.050-9.455 31.198-27.853 35.294-49.084 4.403-22.665 11.162-43.861 28.297-60.45 2.287-2.185 3.925-5.12 5.7-7.851 21.094-32.051 16.282-54.682-16.725-73.796-14.78-8.602-30.413-15.735-45.67-23.415-23.006-11.537-43.179-26.317-60.245-46.012-21.709-24.917-48.23-42.871-81.647-49.118-39.97-7.475-75.093 10.001-92.16 47.343-3.652 7.987-7.782 10.411-16.384 10.854-21.197 1.263-42.394 3.413-63.42 6.519-37.035 5.461-72.602-3.652-108.681-8.943-14.268-2.082-24.201-6.793-33.655-18.944-18.637-23.927-46.831-30.071-75.23-26.317-23.040 3.072-46.694 8.875-67.584 18.739-30.447 14.268-61.952 20.855-94.72 24.405-12.39 1.331-24.849 3.004-37.001 5.598-32.87 7.134-48.469 28.467-39.731 60.723 7.202 26.59 8.192 51.917 4.779 79.053-4.881 38.741 6.861 56.934 45.329 67.857 30.788 8.738 42.496 35.396 61.338 55.535 1.468 1.604 1.195 5.325 0.956 7.987-5.359 52.599 10.342 100.591 32.393 147.012 24.166 50.859 56.559 96.427 91.682 140.22 38.195 47.616 53.658 102.4 49.766 163.055-2.901 45.67-6.793 91.409 4.198 136.738 14.336 59.392 55.159 97.075 115.849 102.81 25.907 2.458 53.111 3.55 78.336-1.536 58.948-11.81 86.869-55.057 100.045-110.012 10.342-43.145 11.674-87.142 9.762-131.072-1.877-42.394 7.885-80.725 33.417-114.654 18.364-24.405 38.502-47.479 55.706-72.67 21.572-31.676 43.486-63.488 60.587-97.621 28.467-56.764 39.322-113.425 19.422-182.955zM386.731 119.194c14.848-24.986 31.812-45.193 59.938-54.852 62.703-21.606 119.808-8.533 173.943 25.259 6.042 3.721 12.288 11.332 13.517 17.988 5.734 32.188 9.796 64.717 14.404 97.212 4.301 30.481 10.513 59.87 41.745 75.742 2.697 1.399 4.028 6.349 5.086 9.865 5.734 18.739 14.95 27.75 33.826 24.815 37.683-5.871 75.093-14.268 87.962-60.211 7.714 12.8 3.823 23.791-4.233 32.017-9.148 9.387-19.797 18.398-31.505 23.927-14.882 6.929-20.173 13.722-18.807 32.119 4.676 62.874-24.61 112.879-66.594 156.774-0.887 0.922-2.526 1.195-3.823 1.741 42.667-50.483 70.895-104.175 50.961-172.51-22.391 1.673-22.699 1.604-24.713 11.401-8.397 40.789-25.020 78.336-43.315 115.473-15.189 31.027-28.672 63.044-41.335 95.164-11.093 28.126-20.002 57.276-29.628 85.197-10.513-6.929-20.378-14.268-30.993-20.343-13.449-7.68-27.682-13.858-41.131-21.538-34.031-19.319-61.679-16.725-91.443 8.875-8.158 7.066-17.203 13.073-27.716 20.924-5.086-53.862-23.211-100.318-43.486-146.159-9.182-20.719-18.5-41.335-28.092-61.815-18.159-38.81-27.887-79.735-31.642-125.338-16.35 23.654-20.89 47.002-19.285 71.851 2.048 32.119 13.687 61.201 28.535 89.259 5.632 10.684 10.615 21.606 15.94 32.495-1.024 0.478-2.082 0.922-3.106 1.399-23.518-37.137-44.783-75.469-53.316-119.194-11.127-56.934 7.782-94.413 57.31-123.802 31.095-18.398 59.494-40.926 76.22-74.411 13.483-26.795 4.779-43.452-25.225-49.323zM321.263-20.070c28.774 2.15 49.391 6.007 61.201 27.068 11.81 20.992 7.885 41.404-4.779 60.518-7.987 12.117-17.306 23.415-25.361 35.533-15.087 22.801-29.867 45.875-44.442 68.983-10.513 16.725-19.081 34.816-30.959 50.415-17.647 23.211-48.162 33.792-71.407-2.458-12.629-19.729-29.355-32.188-51.883-39.014-23.415-7.066-29.798-20.924-27.853-45.602 1.434-18.671 4.233-38.537-0.273-56.149-10.411-40.721-3.482-53.726 38.263-57.993 37.888-3.925 74.854-9.933 109.636-27.785 16.452-8.397 36.181-10.377 47.855-13.517zM706.219 244.599c-5.564-7.066-12.629-13.073-15.667-20.719-4.813-11.878-8.738-24.815-9.762-37.478-3.277-39.458-7.1-78.609-20.48-116.19-2.731-7.68-4.301-15.735-5.769-23.723-4.574-24.542-2.15-47.411 18.739-64.41 20.582-16.862 44.169-17.408 66.662-6.519 16.521 7.919 33.246 18.33 45.568 31.676 21.845 23.654 47.241 40.789 75.947 54.204 11.025 5.12 21.914 10.923 31.949 17.749 11.571 7.851 13.824 17.135 7.68 29.798-4.062 8.26-9.079 16.521-15.292 23.347-10.854 11.947-16.486 25.873-19.831 41.199-2.116 9.523-4.335 19.217-8.329 27.989-9.489 21.197-36.898 25.873-55.569 12.254-11.878-8.67-25.702-15.667-39.663-20.343-17.749-6.007-33.382 0.99-42.564 17.271-5.495 9.694-8.499 20.753-13.619 33.894zM491.793 602.317c5.291 1.399 14.711 2.321 22.767 6.212 20.89 9.796 41.233 20.787 61.645 31.607 3.823 2.014 7.305 4.813 10.581 7.68 21.914 19.524 18.398 41.199-8.329 53.009-19.149 8.397-38.195 16.93-57.139 25.805-24.917 11.537-49.015 12.186-71.646-5.12-14.575-11.127-28.809-22.733-43.008-34.338-8.499-6.861-10.513-15.599-6.178-25.805 6.861-16.077 61.884-56.252 79.667-58.061 2.56-0.341 5.154-0.478 11.639-0.99zM565.419 717.312c5.052-2.185 9.011-3.55 12.493-5.598 11.503-6.861 19.251-2.253 21.367 9.148 3.106 16.998 7.27 34.748 5.052 51.473-3.652 27.921-24.542 46.933-46.353 48.060-26.214 1.263-48.026-20.412-52.77-52.258-3.652-24.474-3.004-25.395 20.855-30.993 2.56 10.206 3.55 21.197 8.294 30.208 3.072 5.871 11.708 12.39 17.647 12.186 5.939-0.137 13.961-7.202 16.998-13.278 7.987-15.906 5.291-32.29-3.584-48.947zM725.436 261.666c0.819-13.653 3.721-28.672 18.569-35.669 14.097-6.724 26.761 0.785 38.229 9.148 2.833 2.082 5.461 4.608 7.748 7.27 8.158 9.387 8.055 20.617-2.185 27.682-9.523 6.588-20.309 12.186-31.3 15.872-20.787 6.895-31.198-1.365-31.061-24.303zM449.161 733.116c6.827 5.393 17.442 9.66 18.057 15.121 2.321 20.275-2.935 39.595-18.671 54.204-13.756 12.732-30.174 10.786-42.086-4.13-19.149-23.859-16.043-69.871 6.69-92.262 3.857 2.867 7.817 5.803 12.083 9.011-11.264 12.39-13.517 26.59-10.172 40.926 1.434 6.076 8.26 10.786 12.629 16.145 4.949-4.198 11.571-7.543 14.37-12.868 3.721-7.1 4.471-15.701 7.1-26.146zM436.531 594.91c2.833-2.389 5.7-4.676 8.431-7.202 26.897-24.917 47.957-27.853 80.384-10.718 9.353 4.949 18.33 10.684 27.682 15.735 3.447 1.809 7.441 2.662 11.708 2.389-26.658-13.995-49.562-37.547-83.388-32.87-20.207 2.799-34.065 15.735-47.275 29.389 0.819 1.058 1.638 2.15 2.458 3.277z" />
<glyph unicode="&#xe948;" glyph-name="bs-linkedin" d="M1023.744-64v0.043h0.256v375.552c0 183.723-39.552 325.248-254.336 325.248-103.253 0-172.544-56.661-200.832-110.379h-2.987v93.227h-203.648v-683.648h212.053v338.517c0 89.131 16.896 175.317 127.275 175.317 108.757 0 110.379-101.717 110.379-181.035v-332.843zM16.896 619.648h212.309v-683.648h-212.309zM122.965 960c-67.883 0-122.965-55.083-122.965-122.965s55.083-124.117 122.965-124.117 122.965 56.235 122.965 124.117c-0.043 67.883-55.125 122.965-122.965 122.965z" />
<glyph unicode="&#xe949;" glyph-name="bs-label-3" d="M932.99 868.986h-212.362c-50.057 0-119.97-28.958-155.367-64.355l-356.69-356.688c-35.395-35.395-35.395-93.315 0-128.711l265.677-265.67c35.395-35.396 93.315-35.396 128.711 0l356.684 356.682c35.398 35.396 64.358 105.312 64.358 155.369v212.361c0 50.057-40.955 91.012-91.012 91.012zM811.639 565.613c-50.264 0-91.012 40.746-91.012 91.012 0 50.264 40.748 91.012 91.012 91.012s91.012-40.748 91.012-91.012c0-50.266-40.748-91.012-91.012-91.012zM74.654 362.139l324.59-324.588c-34.381-18.164-78.178-12.838-107.021 16.011l-265.675 265.67c-35.395 35.396-35.395 93.317 0 128.711l356.69 356.688c35.396 35.396 105.31 64.355 155.367 64.355l-463.949-463.946c-11.797-11.799-11.797-31.104 0-42.901z" />
<glyph unicode="&#xe94a;" glyph-name="bs-label-2" d="M892.795 679.142l-4.341 69.415-3.18 50.863c-0.927 15.034-13.396 26.757-28.473 26.783l-42.086 0.052c-31.376-48.671-62.951-115.435-88.374-183.888 18.612-24.92 17.382-60.265-4.67-83.712-24.721-26.281-66.062-27.546-92.343-2.825s-27.546 66.062-2.825 92.343c8.57 9.116 19.193 15.008 30.44 18.066 23.985 66.66 48.195 119.057 71.616 160.129l-254.239 0.286c0 0 0 0-0.026 0-4.428 0-8.656-1.066-12.443-2.946-3.163-1.499-6.065-3.596-8.561-6.23l-424.393-451.228c-5.19-5.52-7.972-12.867-7.729-20.458 0.243-7.565 3.449-14.722 8.968-19.929l406.274-382.108c5.52-5.182 12.556-7.755 19.574-7.755 7.591 0 15.172 3.024 20.813 8.994l422.998 449.729c6.351 5.736 9.921 14.15 9.35 22.979l-16.351 261.439zM495.073 327.839c-3.821 8.648-9.748 24.808-27.295 41.315-15.848 14.904-27.39 12.893-33.811 6.065-7.565-8.041-3.839-21.186 9.54-48.472 19.375-37.528 18.474-61.929-2.175-83.877-20.406-21.697-53.186-25.761-85.801-4.28l-23.369-24.851-23.889 22.468 21.766 23.144c-15.649 16.1-27.364 35.388-31.584 49.46l34.14 21.645c4.965-15.224 14.54-33.871 30.379-48.775 13.89-13.067 28.438-16.654 37.606-6.906 8.717 9.272 6.429 22.46-5.875 45.517-17.841 33.308-24.167 62.232-1.932 85.87 20.181 21.454 51.106 24.045 82.005 4.636l21.784 23.161 23.889-22.468-20.181-21.454c15.64-16.1 23.43-29.816 27.789-41.289l-32.988-20.909zM715.458 343.271c-1.811-1.906-4.237-2.877-6.663-2.877-2.236 0-4.497 0.832-6.256 2.47l-286.065 269.082c-3.683 3.475-3.856 9.254-0.407 12.919 3.492 3.639 9.28 3.83 12.919 0.407l286.065-269.082c3.691-3.475 3.856-9.254 0.407-12.919zM998.499 892.517c-6.923 23.309-28.872 63.081-97.975 67.405-21.645 1.239-137.452-9.012-247.29-349.787-3.709-11.533 2.617-23.881 14.124-27.589 2.236-0.711 4.497-1.074 6.733-1.074 9.254 0 17.859 5.918 20.857 15.198 40.604 125.867 130.789 323.567 202.864 319.477 32.398-2.019 52.137-14.176 58.653-36.133 9.627-32.381-8.57-86.424-53.376-137.288l3.544-58.619c71.633 65.031 109.647 148.578 91.866 208.41z" />
<glyph unicode="&#xe94b;" glyph-name="bs-label" d="M993.833 469.59l-460.841 460.672c-18.347 18.473-44.033 29.738-72.149 29.738h-358.53c-56.233 0-102.314-46.080-102.314-102.314v-358.485c0-28.118 11.265-53.802 30.165-72.747l460.841-460.672c18.347-18.518 44.033-29.781 72.149-29.781 28.118 0 53.802 11.265 72.149 30.165l358.485 358.485c18.943 18.39 30.208 44.074 30.208 72.191s-11.816 54.229-30.163 72.747zM179.158 704c-42.41 0-76.842 34.262-76.842 76.842 0 42.41 34.431 76.842 76.842 76.842 42.582 0 76.842-34.431 76.842-76.842 0-42.58-34.262-76.842-76.842-76.842z" />
<glyph unicode="&#xe94c;" glyph-name="bs-kik" d="M85.333 40.917v814.122c0 57.984 41.216 104.96 92.16 104.96s92.458-46.976 92.458-104.96v-458.112l230.571 248.234c26.88 29.27 48.598 46.976 81.408 46.976 49.962 0 81.194-45.482 81.194-93.739 0-35.926-17.023-63.488-42.239-91.263l-145.793-141.996 173.951-266.197c15.787-24.917 22.998-44.16 22.998-67.839 0-56.32-40.021-95.105-86.228-95.105-36.564 0-58.324 13.866-80.256 48.129l-161.494 252.8-74.069-75.99v-120.021c-0.043-57.984-41.516-104.917-92.501-104.917s-92.16 46.934-92.16 104.917zM827.775 164.864c61.14 0 110.89 50.004 110.89 111.233 0 61.781-49.75 111.787-110.89 111.787-61.526 0-110.89-50.004-110.89-111.787 0-61.226 49.366-111.233 110.89-111.233z" />
<glyph unicode="&#xe94d;" glyph-name="bs-js-2" d="M856.816 886.857h-689.633c-51.918 0-94.041-42.122-94.041-94.041v-689.633c0-51.918 42.122-94.041 94.041-94.041h689.633c51.918 0 94.041 42.122 94.041 94.041v689.633c0 51.918-42.122 94.041-94.041 94.041zM550.792 202.318c0-85.421-50.155-124.408-123.233-124.408-66.025 0-104.229 34.090-123.82 75.429l67.2 40.555c12.931-22.922 24.686-42.318 53.094-42.318 27.037 0 44.278 10.579 44.278 51.918v280.359h82.482v-281.535zM745.927 77.91c-76.604 0-126.171 36.441-150.269 84.244l67.2 38.792c17.633-28.8 40.751-50.155 81.306-50.155 34.090 0 56.033 17.044 56.033 40.751 0 28.212-22.335 38.204-60.147 54.857l-20.571 8.817c-59.559 25.273-98.939 57.208-98.939 124.408 0 61.91 47.216 108.93 120.686 108.93 52.506 0 90.122-18.22 117.159-66.024l-64.261-41.143c-14.106 25.273-29.388 35.265-53.094 35.265-24.098 0-39.38-15.282-39.38-35.265 0-24.686 15.282-34.678 50.743-50.156l20.571-8.816c70.139-29.976 109.518-60.735 109.518-129.698 0-74.057-58.384-114.808-136.555-114.808z" />
<glyph unicode="&#xe94e;" glyph-name="bs-js" d="M286.258 191.989l-118.829-69.417-70.715 70.715 64.245 120.026c-12.572 22.078-22.303 45.421-29.144 69.475l-130.37 35.413v100.18l129.673 38.089c6.657 24.174 16.179 47.669 28.602 69.895l-65.952 117.912 70.715 70.715 118.857-66.765c22.673 12.479 45.927 21.834 69.383 28.285l36.675 133.748h100.18l37.739-136.552c22.053-6.75 43.299-15.853 63.357-27.079l124.8 71.308 70.715-70.715-70.95-125.987c18.203-33.458 30.6-70.922 35.473-111.439h-125.15c-25.192 124.756-169.254 195.602-286.060 128.262-128.466-74.062-128.466-260.223 0-334.286 51.996-29.976 87.392-34.811 133.254-15.211v-95.959l-89.769-53.564c0 0-73.164 40.285-96.729 52.948zM552.733 89.965c-32.187-10.879-57.097-4.351-82.989 42.353l-73.514-45.035c29.795-74.51 135.483-106.808 212.751-64.055 51.86 34.323 59.826 69.602 58.695 179.268v249.176h-90.78v-285.658c1.030-33.844-0.361-68.005-24.164-76.050zM966.654 26.884c43.271 24.388 68.179 71.628 55.472 132.43-20.471 114.59-175.089 114.59-193.423 161.422-20.133 67.605 72.935 78.293 98.75 18.101l70.765 45.406c-50.646 97.349-188.341 87.713-234.319 28.51-45.746-51.923-32.711-142.797 22.981-180.203 54.858-41.174 135.445-50.533 145.731-89.051 10.008-47.136-34.657-62.364-79.043-56.958-32.711 6.795-50.904 23.413-70.58 53.653l-73.422-42.348c49.51-98.818 182.549-112.973 257.087-70.962z" />
<glyph unicode="&#xe94f;" glyph-name="bs-jquery" d="M998.805 227.277c-13.82-22.922-26.303-46.783-41.688-68.604-76.772-108.89-181.907-172.541-313.433-192.371-66.178-9.979-132.508-7.857-198.1 4.579-69.746 13.228-132.964 43.214-191.343 82.808-119.55 81.072-201.986 189.695-238.558 330.48-24.386 93.873-22.072 186.853 19.285 276.196 10.78 23.292 25.342 45.11 40.216 66.159 17.196 24.337 36.655 47.075 56.563 69.713-3.375-7.893-6.939-15.714-10.098-23.694-37.179-93.888-37.583-189.26-9.019-284.936 38.868-130.189 119.156-230.037 230.596-305.628 99.967-67.806 210.821-100.244 331.678-96.827 91.813 2.595 178.040 24.681 252.769 80.38 24.921 18.575 46.77 41.27 70.024 62.078 0.367-0.112 0.739-0.222 1.108-0.333zM1024 485.479c-7.513-14.825-14.040-29.874-22.392-43.834-53.706-89.768-133.248-140.99-236.166-157.154-52.851-8.303-105.735-6.77-157.824 3.423-37.721 7.381-72.919 23.65-106.017 43.457-95.812 57.337-164.044 136.989-192.522 246.309-24.27 93.162-11.342 180.839 46.995 259.745 11.403 15.424 22.224 31.278 33.336 46.917 0.379 0.535 0.992 0.902 2.345 2.1-0.418-2.044-0.443-3.358-0.947-4.451-42.287-91.75-38.86-184.009 4.677-272.985 68.189-139.356 181.558-219.78 335.73-239.274 86.489-10.936 167.009 8.228 236.772 62.518 19.973 15.542 36.951 34.924 56.013 53.229zM605.3 936c-4.276-17.406-10.085-34.323-12.4-51.707-7.479-56.16 9.264-106.64 40.688-152.367 47.184-68.662 113.273-106.404 195.819-116.046 26.303-3.071 52.43-2.894 78.281 3.25 29.313 6.968 40.998 14.011 82.194 48.85-2.51-4.832-3.814-7.739-5.46-10.44-38.795-63.714-95.444-95.492-170.116-98.527-127.829-5.199-233.313 91.405-256.971 190.864-13.99 58.816-4.693 113.471 31.083 162.94 5.624 7.771 11.295 15.511 16.882 23.183z" />
<glyph unicode="&#xe950;" glyph-name="bs-java" d="M392.738 162.543l43.93 25.805-49.084-13.653c-37.205-10.411-54.852-24.405-52.531-41.54 4.13-30.14 76.732-53.726 165.274-53.726 44.544 0 111.787 6.076 179.678 35.191l14.95 6.417-15.189 5.871c-30.891 12.015-53.385 26.010-53.623 26.146l-2.185 1.399-2.526-0.478c-53.931-10.274-88.542-14.199-123.426-14.199-22.801 0-46.933 1.604-80.759 5.461-29.525 3.482-32.188 9.455-32.222 9.523-0.171 1.297 3.584 5.291 7.714 7.782zM473.873-16.452c194.219 0 366.217 36.932 375.637 80.589 1.741 8.055-0.785 19.661-22.665 29.525l-42.462 19.149 35.465-30.276c0.068 0 5.222-4.54 4.164-9.523-0.683-3.277-5.222-11.81-32.836-20.139-57.276-17.34-185.754-29.457-312.457-29.457-118.238 0-209.34 10.138-249.993 27.853-5.052 2.185-6.144 3.857-6.246 3.857 1.229 6.212 31.573 19.456 57.037 24.917 15.838 3.413 26.522 3.789 30.413 3.789l25.532-1.536-19.183 13.483c-6.485 4.608-16.452 6.929-29.662 6.929-48.435 0-137.728-31.949-140.254-63.386-1.98-24.474 41.199-31.471 55.398-33.724 90.112-14.677 181.623-22.050 272.111-22.050v0zM402.466 296.516l-39.014-12.937c-41.745-13.858-60.655-29.013-57.856-46.217 5.257-32.734 91.785-47.411 175.241-47.411 72.397 0 149.129 10.786 216.064 30.345l19.763 5.803-19.422 6.861c-23.211 8.124-38.298 23.279-38.468 23.415l-2.492 2.526-3.482-0.683c-65.707-12.663-117.623-18.33-168.448-18.33-28.467 0-57.958 1.741-95.642 5.666-26.658 2.731-29.764 9.25-30.14 10.547-1.126 4.198 5.598 11.878 10.923 15.872l32.973 24.542c13.585-0.341 24.474-0.41 30.618-0.41 97.382 0 190.737 9.796 256.102 27.068l2.082 0.922c18.295 12.459 44.1 23.586 44.373 23.723l53.111 22.801-56.9-10.138c-0.717-0.205-75.776-13.517-149.436-19.729-17.476-1.468-35.157-2.594-52.77-3.55l27.136 13.995c2.833 1.399 69.495 36.386 82.159 88.508 5.222 21.504 0.58 42.633-13.858 62.976l-6.656 9.284c-21.163 29.355-37.854 52.565-32.29 78.541 7.578 35.362 57.412 78.131 161.587 138.581l40.619 23.552-45.568-11.366c-7.748-1.946-190.020-48.606-222.31-150.903-13.141-41.643 0.614-86.255 40.858-132.642 12.322-14.234 17.954-29.252 16.691-44.612-2.389-29.082-28.262-50.722-28.535-50.927l-31.061-25.668c-70.997-3.584-138.377-3.209-173.978 1.604-29.013 3.857-33.348 8.397-33.553 8.465 2.833 8.124 47.753 25.054 98.338 37.069l42.359 10.069-43.452 3.072c0 0-2.56 0.205-7.305 0.205-22.357 0-82.022-3.652-152.747-37.854-6.144-2.935-24.747-11.947-21.538-25.873 6.622-28.74 116.975-35.328 175.923-36.762zM745.472 384.341l-11.025-17.271 19.081 7.612c0.068 0 6.417 2.458 20.275 5.393 23.381 4.813 56.627-9.011 64-39.117 4.574-18.671 3.106-68.267-108.578-126.259l-2.185-1.502-0.956-2.082c-0.171-0.41-0.887-1.263-1.468-1.809l-42.667-24.542 48.265 12.663c128.887 33.86 168.516 94.993 162.611 140.937-5.086 39.39-42.018 68.062-87.859 68.062-13.244 0-26.726-2.389-40.141-7.134-12.527-4.369-19.081-14.507-19.354-14.95zM517.018 387.072l23.108-20.855-12.595 28.467c-8.602 19.456-21.948 38.502-34.85 56.866-44.783 63.761-87.074 124.041 32.973 218.795 80.691 63.727 123.426 126.498 126.976 186.641 3.174 53.828-26.965 84.617-28.262 85.948l-17.101 17.067 5.973-23.415c26.761-105.54-43.452-160.495-117.794-218.726-36.079-28.228-73.318-57.412-96.597-92.331-50.654-75.981 26.999-156.126 118.17-238.455zM881.084 39.663c-0.137-0.341-16.247-29.935-143.326-53.862-73.421-13.79-160.017-21.129-250.334-21.129-74.274 0-145.681 4.983-201.114 14.131l-24.235 3.994 18.944-15.667c2.526-2.082 27.955-20.548 144.555-27.989 32.631-2.15 66.935-3.14 101.99-3.14v0c84.173 0 359.083 7.202 366.217 100.386l2.492 33.724-15.189-30.447z" />
<glyph unicode="&#xe951;" glyph-name="bs-instagram" d="M704 960h-384c-176.704 0-320-143.296-320-320v-384c0-176.704 143.296-320 320-320h384c176.704 0 320 143.296 320 320v384c0 176.704-143.296 320-320 320zM928 256c0-123.52-100.48-224-224-224h-384c-123.52 0-224 100.48-224 224v384c0 123.52 100.48 224 224 224h384c123.52 0 224-100.48 224-224v-384zM512 704c-141.376 0-256-114.624-256-256s114.624-256 256-256 256 114.624 256 256-114.624 256-256 256zM512 288c-88.192 0-160 71.808-160 160 0 88.256 71.808 160 160 160s160-71.744 160-160c0-88.192-71.808-160-160-160zM821.312 723.2c0-18.84-15.272-34.112-34.112-34.112s-34.112 15.272-34.112 34.112c0 18.84 15.272 34.112 34.112 34.112s34.112-15.272 34.112-34.112z" />
<glyph unicode="&#xe952;" glyph-name="bs-init-button" d="M512 960c-282.785 0-512-229.215-512-512s229.215-512 512-512 512 229.249 512 512-229.215 512-512 512zM785.152 302.848c-12.512-12.512-32.768-12.512-45.248 0l-227.904 227.904-227.872-227.87c-12.512-12.514-32.768-12.514-45.248 0-12.512 12.512-12.512 32.768 0 45.247l245.024 245.024c7.68 7.68 18.176 10.048 28.13 8.321 9.92 1.76 20.448-0.641 28.128-8.321l245.024-245.024c12.447-12.512 12.447-32.768-0.033-45.28z" />
<glyph unicode="&#xe953;" glyph-name="bs-info" d="M512 874.667c-235.641 0-426.667-191.025-426.667-426.667s191.025-426.667 426.667-426.667c235.641 0 426.667 191.025 426.667 426.667v0c0 235.641-191.025 426.667-426.667 426.667v0zM512 106.667c-188.513 0-341.333 152.82-341.333 341.333s152.82 341.333 341.333 341.333c188.513 0 341.333-152.82 341.333-341.333v0c0-188.513-152.82-341.333-341.333-341.333v0zM554.667 618.667c0-23.564-19.103-42.667-42.667-42.667s-42.667 19.103-42.667 42.667c0 23.564 19.103 42.667 42.667 42.667s42.667-19.103 42.667-42.667zM512 533.333c-23.564 0-42.667-19.103-42.667-42.667v0-213.333c0-23.564 19.103-42.667 42.667-42.667s42.667 19.103 42.667 42.667v0 213.333c0 23.564-19.103 42.667-42.667 42.667v0z" />
</font>
</defs>
</svg>
